<svg width="512" height="512" viewBox="0 0 512 512" fill="none" xmlns="http://www.w3.org/2000/svg">
<path d="M266.139 91.9152C266.614 91.0431 268.16 90.2163 269.315 90.2163C270.694 90.2163 272.344 91.104 272.963 92.1769C273.647 93.3619 273.59 94.0044 272.716 94.9556C272.469 95.2234 272.223 95.492 271.976 95.7607C271.392 95.7511 270.808 95.7424 270.224 95.7329C268.738 95.7103 268.333 95.619 267.565 95.1356C266.65 94.56 265.795 93.4384 265.81 92.835C265.814 92.6551 265.962 92.2412 266.139 91.9152Z" fill="white"/>
<path d="M224.305 246.013C224.891 244.864 226.798 243.058 228.612 241.936C230.398 240.832 232.729 239.674 233.186 239.664C233.377 239.661 233.725 239.513 233.958 239.337C234.192 239.161 234.647 239.016 234.97 239.016C235.293 239.016 236.029 238.809 236.606 238.554C237.57 238.128 238.034 238.091 242.312 238.097C246.149 238.102 247.093 238.164 247.676 238.455C248.065 238.648 248.783 238.869 249.271 238.945C249.759 239.022 251.608 239.813 253.381 240.704C256.295 242.169 256.74 242.472 258.039 243.871C258.83 244.723 259.442 245.571 259.403 245.762C259.297 246.273 257.557 246.155 256.382 245.556C255.114 244.911 252.413 243.818 252.086 243.817C251.942 243.817 251.474 243.61 251.044 243.358C250.234 242.88 249.243 242.925 248.906 243.452C248.817 243.592 248.739 244.493 248.733 245.453C248.723 247.233 248.258 249.06 247.637 249.774C246.55 251.022 246.03 251.483 245.088 252.035C244.144 252.588 243.805 252.658 241.848 252.703C239.873 252.747 239.556 252.698 238.567 252.189C237.317 251.547 236.222 250.576 235.577 249.54C234.963 248.552 234.464 246.294 234.622 245.218C234.836 243.756 234.642 243.526 233.337 243.697C232.723 243.778 232.003 243.984 231.737 244.157C231.471 244.33 231.144 244.471 231.012 244.471C230.307 244.471 227.041 246.35 225.506 247.638C225.014 248.05 224.767 248.129 224.467 247.968C223.859 247.644 223.806 246.994 224.305 246.013Z" fill="white"/>
<path d="M147.622 244.798C147.952 244.438 148.713 243.759 149.314 243.29C149.916 242.82 150.506 242.325 150.627 242.188C150.938 241.836 153.354 240.403 154.838 239.689C157.569 238.377 158.675 238.143 162.167 238.143C164.976 238.143 165.5 238.2 166.211 238.58C166.66 238.82 167.185 239.016 167.378 239.016C167.9 239.016 171.597 240.909 173.402 242.101C174.894 243.087 175.722 243.933 176.315 245.08C176.622 245.672 176.432 246.434 175.978 246.434C175.673 246.434 175.442 246.302 173.769 245.166C173.383 244.904 172.93 244.689 172.764 244.689C172.597 244.689 172.282 244.493 172.065 244.253C171.847 244.013 171.449 243.816 171.182 243.816C170.915 243.816 170.574 243.67 170.424 243.49C170.124 243.13 169.176 243.059 168.698 243.362C168.448 243.519 168.438 243.735 168.643 244.546C168.999 245.959 168.957 246.575 168.392 248.18C167.601 250.424 167.208 250.928 165.589 251.777C164.231 252.489 163.984 252.544 162.164 252.544C160.533 252.544 160.108 252.47 159.646 252.107C159.34 251.867 158.996 251.671 158.882 251.671C158.56 251.671 156.424 249.336 156.424 248.984C156.424 248.811 156.279 248.551 156.103 248.404C155.863 248.205 155.766 247.52 155.72 245.705C155.661 243.4 155.633 243.268 155.187 243.204C154.674 243.131 151.492 244.643 150.386 245.485C149.562 246.112 147.791 246.745 147.342 246.573C146.831 246.377 146.968 245.515 147.622 244.798Z" fill="white"/>
<path d="M173.392 340.159C173.582 339.971 173.984 339.817 174.288 339.817C174.591 339.817 175.089 339.62 175.395 339.38C175.748 339.103 176.283 338.944 176.858 338.944C177.356 338.944 177.958 338.811 178.195 338.648C178.432 338.487 179.19 338.297 179.879 338.228C180.568 338.161 181.353 337.949 181.623 337.761C182.327 337.269 188.127 337.269 189.578 337.76C190.137 337.948 191.543 338.189 192.703 338.295C193.865 338.401 195.223 338.575 195.723 338.682C196.345 338.816 196.896 338.793 197.473 338.607C197.936 338.458 199.066 338.285 199.985 338.222C200.903 338.16 201.939 337.961 202.288 337.782C203.229 337.296 209.246 337.271 210.389 337.748C210.845 337.938 212.006 338.146 212.969 338.21C213.933 338.274 215.092 338.466 215.546 338.635C216.167 338.867 217.626 338.947 221.452 338.954C225.651 338.961 226.723 339.027 227.627 339.335C229.185 339.866 229.146 340.276 227.472 340.965C225.924 341.601 223.399 342.125 220.955 342.316C218.871 342.48 213.266 341.953 209.302 341.221C206.718 340.745 206.176 340.792 201.486 341.916C199.52 342.386 196.64 342.525 194.814 342.236C193.973 342.103 192.348 341.854 191.205 341.682C190.062 341.51 188.783 341.265 188.363 341.138C187.221 340.793 181.715 340.856 180.158 341.231C178.414 341.651 174.8 341.659 173.808 341.246C172.968 340.896 172.881 340.67 173.392 340.159Z" fill="white"/>
<path d="M182.497 155.915C183.387 155.047 184.16 155.033 185.056 155.868C185.723 156.489 185.952 157.428 185.569 157.973C185.302 158.352 184.049 159.162 183.729 159.162C183.564 159.162 183.063 158.861 182.614 158.492C181.56 157.624 181.525 156.863 182.497 155.915Z" fill="white"/>
<path d="M207.135 155.447C207.438 155.074 207.762 154.957 208.487 154.957C209.665 154.957 210.236 155.548 210.236 156.764C210.236 157.481 210.133 157.653 209.458 158.049C208.457 158.639 208.224 158.627 207.41 157.943C206.617 157.277 206.501 156.227 207.135 155.447Z" fill="white"/>
<path d="M171.198 157.142C171.879 156.409 172.614 156.379 173.399 157.053C173.83 157.423 173.987 157.756 173.972 158.269C173.947 159.166 173.632 159.538 172.673 159.801C172.028 159.98 171.808 159.94 171.275 159.547C170.453 158.94 170.421 157.977 171.198 157.142Z" fill="white"/>
<path d="M194.721 155.373C195.073 154.927 195.366 154.799 196.034 154.799C197.207 154.799 197.769 155.384 197.764 156.598C197.759 157.772 197.069 158.508 195.973 158.508C194.533 158.508 193.766 156.585 194.721 155.373Z" fill="white"/>
<path d="M160.704 159.237C161.155 158.787 161.399 158.703 161.947 158.813C162.323 158.888 162.808 159.11 163.027 159.308C163.578 159.806 163.543 160.828 162.963 161.139C162.442 161.416 160.779 161.492 160.396 161.256C159.936 160.972 160.111 159.828 160.704 159.237Z" fill="white"/>
<path d="M223.422 156.253C223.826 155.751 224.059 155.649 224.677 155.708C225.735 155.808 226.14 156.629 225.677 157.734C225.397 158.403 225.253 158.508 224.617 158.508C224.056 158.508 223.768 158.355 223.403 157.862C222.811 157.064 222.812 157.014 223.422 156.253Z" fill="white"/>
<path d="M236.337 157.891C237.047 157.225 238.519 157.231 238.99 157.902C239.823 159.089 239.051 160.471 237.556 160.471C236.076 160.471 235.312 158.852 236.337 157.891Z" fill="white"/>
<path d="M100.457 298.799C101.884 297.097 108.079 285.176 108.079 284.131C108.079 283.971 108.223 283.637 108.398 283.388C108.704 282.952 109.191 281.747 109.62 280.362C109.731 280.002 109.912 279.511 110.022 279.271C110.132 279.031 110.532 277.951 110.91 276.872C111.289 275.791 111.778 274.416 111.996 273.816C112.668 271.97 113.336 269.694 113.34 269.235C113.342 268.995 113.488 268.608 113.665 268.375C113.841 268.142 113.986 267.63 113.986 267.237C113.986 266.844 114.137 266.078 114.322 265.534C114.507 264.991 114.745 263.932 114.852 263.182C115.05 261.777 115.384 259.666 115.744 257.562C115.857 256.903 116.09 255.029 116.262 253.4C116.526 250.892 116.53 250.2 116.28 248.895C115.55 245.074 114.612 243.067 112.088 239.933C110.99 238.57 110.702 237.737 110.563 235.526C110.381 232.607 111.329 231.042 113.488 230.703C114.913 230.479 116.87 229.963 117.432 229.664C117.687 229.527 118.221 229.417 118.62 229.417C119.626 229.417 121.71 228.283 121.892 227.637C121.971 227.356 122.046 226.582 122.057 225.917C122.07 225.252 122.216 224.173 122.381 223.517C122.547 222.862 122.747 221.662 122.825 220.851C122.903 220.039 123.067 219.115 123.188 218.798C123.308 218.48 123.49 217.671 123.592 217C123.993 214.338 125.508 209.168 127.657 203.126C128.211 201.566 128.752 199.995 128.858 199.635C128.963 199.275 129.2 198.588 129.383 198.108C129.837 196.919 129.815 196.132 129.303 195.192C128.037 192.867 127.985 192.512 128.002 186.372C128.01 183.227 128.107 179.77 128.216 178.689C128.327 177.609 128.559 174.566 128.734 171.926C128.908 169.286 129.154 166.341 129.279 165.381C129.404 164.421 129.605 162.8 129.725 161.78C130.061 158.918 130.809 153.973 131.145 152.398C131.311 151.618 131.549 150.49 131.673 149.889C132.574 145.551 135.049 136.992 136.469 133.307C137.469 130.713 140.908 123.35 141.871 121.744C142.158 121.264 142.543 120.577 142.726 120.217C142.91 119.857 143.335 119.112 143.672 118.562C144.008 118.011 144.627 116.998 145.049 116.312C145.469 115.624 145.913 114.894 146.033 114.689C146.313 114.214 147.254 112.904 147.625 112.475C148.062 111.969 150.584 108.652 150.955 108.095C152.073 106.417 158.255 99.9931 161.126 97.5257C161.964 96.8058 162.947 95.9155 163.31 95.5468C163.674 95.1773 164.521 94.474 165.195 93.9827C165.868 93.4906 166.599 92.9099 166.818 92.6908C167.231 92.2795 167.797 91.9144 168.573 91.5579C168.819 91.4457 169.163 91.1797 169.339 90.9667C169.515 90.7545 170.154 90.2633 170.761 89.8755C171.368 89.4878 171.995 89.0131 172.155 88.8209C172.315 88.6288 172.585 88.4714 172.756 88.4714C172.926 88.4714 173.577 88.128 174.203 87.708C174.828 87.2872 175.454 86.9438 175.593 86.9438C175.732 86.9438 175.902 86.7969 175.972 86.6169C176.041 86.4369 176.241 86.2891 176.416 86.2891C176.591 86.2891 177.012 86.0605 177.353 85.7805C177.692 85.5005 178.414 85.038 178.955 84.7511C179.497 84.465 180.087 84.119 180.268 83.9825C180.702 83.6539 182.54 82.7088 183.767 82.1819C184.309 81.9489 185.71 81.3055 186.882 80.7517C188.054 80.197 189.155 79.744 189.33 79.744C189.505 79.744 189.705 79.6527 189.773 79.5414C189.842 79.4302 190.266 79.2215 190.716 79.078C191.165 78.9337 191.681 78.6929 191.862 78.5433C192.042 78.3929 192.485 78.2182 192.846 78.1547C193.637 78.0156 195.456 77.4044 196.309 76.9905C196.65 76.8245 197.1 76.6897 197.31 76.6897C197.52 76.6897 198.62 76.3924 199.753 76.0289C200.887 75.6655 202.307 75.2282 202.909 75.0578C203.51 74.8865 204.648 74.5457 205.44 74.3005C206.23 74.0544 207.094 73.8527 207.359 73.8527C207.624 73.8527 208.401 73.6571 209.086 73.4171C209.77 73.1763 210.67 72.9807 211.085 72.9807C211.5 72.9807 212.339 72.8381 212.951 72.6642C214.047 72.353 215.09 72.1947 220.081 71.5792C231.545 70.1655 241.112 69.7786 249.395 70.3959C251.26 70.535 253.131 70.5811 253.551 70.4985C254.06 70.3985 254.778 69.9142 255.702 69.0482C258.048 66.8468 260.395 66.0026 264.173 66C266.759 65.9983 269.053 66.4878 271.743 67.6163C273.86 68.5048 275.63 70.2472 276.978 72.7712C277.343 73.4545 277.857 74.124 278.119 74.2588C278.592 74.5013 280.111 74.9639 282.862 75.7029C283.644 75.9124 284.72 76.2211 285.253 76.3871C285.786 76.5532 286.407 76.6897 286.634 76.6897C286.861 76.6897 287.262 76.8106 287.525 76.9584C287.788 77.107 288.446 77.3418 288.987 77.4809C289.529 77.62 290.292 77.8417 290.682 77.9747C291.074 78.1077 291.714 78.3242 292.105 78.4555C292.495 78.5859 293.307 78.8876 293.909 79.1241C294.51 79.3606 295.396 79.6884 295.878 79.8518C297.507 80.4048 298.537 80.8065 299.765 81.3673C300.439 81.6742 301.231 81.9254 301.524 81.9254C301.818 81.9254 302.181 82.0732 302.331 82.2532C302.481 82.4332 302.744 82.5801 302.916 82.5801C303.088 82.5801 303.593 82.7688 304.038 82.9992C306.76 84.4094 307.706 84.8832 309.769 85.8709C311.032 86.4752 312.243 87.0664 312.458 87.1838C312.674 87.3003 313.413 87.6967 314.099 88.0645C314.786 88.4314 315.839 89.0531 316.44 89.4443C317.378 90.0555 318.997 90.9641 320.966 91.9865C321.886 92.463 322.118 92.5916 323.248 93.2472C323.863 93.6045 324.798 94.2001 325.326 94.5696C325.853 94.94 326.826 95.6016 327.487 96.039C328.149 96.4771 328.789 96.9423 328.91 97.0718C329.03 97.2022 329.502 97.5048 329.959 97.7448C330.416 97.9839 331.061 98.4255 331.392 98.7255C331.723 99.0255 332.654 99.7532 333.46 100.342C334.266 100.93 334.925 101.477 334.925 101.557C334.925 101.637 335.353 101.916 335.876 102.177C336.4 102.437 337.508 103.314 338.34 104.125C339.172 104.935 340.215 105.893 340.657 106.253C342.855 108.041 343.459 108.581 345.288 110.399C346.375 111.478 347.859 113.11 348.587 114.024C349.314 114.938 350.872 116.877 352.05 118.332C353.226 119.788 354.26 121.167 354.346 121.398C354.433 121.627 354.776 122.144 355.11 122.544C355.937 123.536 357.139 125.281 357.677 126.271C357.922 126.721 358.218 127.089 358.336 127.089C358.454 127.089 358.55 127.264 358.55 127.477C358.55 127.691 358.693 128.068 358.868 128.317C359.382 129.049 363.144 136.519 363.144 136.808C363.144 136.954 363.291 137.194 363.472 137.344C363.653 137.494 363.8 137.81 363.8 138.047C363.8 138.284 363.942 138.787 364.114 139.165C364.496 140.002 365.382 142.513 366.13 144.872C366.434 145.831 366.82 146.96 366.989 147.381C367.157 147.801 367.387 148.537 367.501 149.017C367.615 149.497 367.858 150.282 368.041 150.762C368.225 151.242 368.383 151.93 368.392 152.29C368.402 152.65 368.551 153.189 368.722 153.489C368.894 153.789 369.038 154.5 369.043 155.067C369.047 155.634 369.186 156.469 369.353 156.921C369.519 157.374 369.767 158.628 369.903 159.708C370.04 160.787 370.351 163.242 370.595 165.162C371.169 169.679 371.401 180.376 371.038 185.672C370.671 191.039 369.641 200.654 369.285 202.035C369.162 202.515 369.054 203.546 369.046 204.326C369.038 205.106 368.893 206.131 368.724 206.604C368.555 207.077 368.35 208.255 368.268 209.222C368.186 210.189 368.032 211.149 367.924 211.356C367.817 211.563 367.633 212.479 367.518 213.391C367.402 214.303 367.164 215.508 366.99 216.069C366.527 217.556 366.134 219.586 366.126 220.527C366.12 221.206 366.286 221.52 367.093 222.352C367.628 222.905 368.657 223.847 369.378 224.445C370.101 225.042 372.069 226.834 373.753 228.425C375.438 230.017 377.451 231.848 378.228 232.495C379.005 233.142 383.026 237.01 387.165 241.089C395.55 249.354 403.374 257.899 405.845 261.49C406.216 262.03 406.787 262.766 407.112 263.126C408.123 264.247 410.177 268.182 410.984 270.544C412.197 274.096 412.194 274.078 412.194 277.154C412.194 279.416 412.107 280.355 411.841 280.991C411.647 281.454 411.488 282.007 411.488 282.22C411.488 282.815 409.995 285.709 409.155 286.74C407.986 288.175 404.893 290.351 402.465 291.447C402.013 291.65 401.325 291.961 400.934 292.136C400.542 292.312 399.928 292.523 399.566 292.606C399.205 292.688 398.716 292.887 398.478 293.049C398.241 293.212 397.688 293.344 397.249 293.344C396.811 293.344 395.835 293.54 395.082 293.78C394.215 294.057 393.102 294.218 392.045 294.22C391.129 294.222 389.788 294.366 389.066 294.539C388.344 294.713 386.908 294.859 385.873 294.864C384.361 294.87 383.928 294.946 383.662 295.253C383.392 295.564 383.282 297.04 383.065 303.271C382.919 307.471 382.665 311.939 382.501 313.198C382.336 314.458 382.137 316.324 382.057 317.344C381.978 318.364 381.82 319.69 381.706 320.289C381.39 321.958 380.833 328.231 380.709 331.533C380.555 335.618 381.344 341.706 382.519 345.489C385.664 355.614 388.874 361.631 395.629 370.06C397.952 372.961 398.046 373.381 396.157 372.426C393.81 371.239 391.634 369.539 388.629 366.544C385.534 363.458 384.695 362.454 382.801 359.562C379.929 355.178 379.705 354.822 379.299 353.998C379.151 353.698 378.737 352.987 378.379 352.417C376.083 348.767 376.788 355.215 379.586 363.49C380.074 364.93 380.601 366.403 380.758 366.762C380.915 367.122 381.307 368.055 381.628 368.835C381.949 369.615 382.347 370.548 382.511 370.908C383.931 374.02 385.752 379.809 386.732 384.326C388.598 392.926 388.217 402.214 385.546 413.212C385.141 414.88 384.753 416.3 384.684 416.369C384.472 416.58 384.152 415.892 384.14 415.199C384.133 414.839 383.988 413.906 383.816 413.126C383.644 412.346 383.494 410.53 383.484 409.089C383.474 407.649 383.369 405.686 383.253 404.726C383.136 403.766 382.949 401.753 382.836 400.253C382.392 394.337 380.7 387.371 378.677 383.126C376.806 379.198 375.517 376.791 375.174 376.58C374.788 376.341 374.373 376.749 374.011 377.723C373.741 378.449 373.57 379.92 373.421 382.79C373.306 385.014 373.159 387.277 373.095 387.817C372.963 388.935 373.36 397.456 373.645 399.598C374.828 408.483 376.116 413.721 378.338 418.689C378.499 419.049 378.853 419.884 379.125 420.544C380.188 423.127 381.948 426.653 383.234 428.777C383.975 430.001 384.582 431.061 384.582 431.131C384.582 431.202 385.172 432.148 385.894 433.234C386.617 434.319 387.207 435.256 387.207 435.314C387.207 435.373 387.403 435.67 387.644 435.975C388.242 436.733 388.217 437.343 387.589 437.347C386.982 437.349 382.676 436.748 381.191 436.452C377.537 435.726 374.73 434.912 370.578 433.374C369.954 433.144 365.459 430.716 363.99 429.817C361.686 428.407 357.487 424.986 354.562 422.138C352.809 420.43 352.307 420.058 351.718 420.031C351.48 420.021 351.242 420.009 351.004 419.999C351.016 420.706 351.029 421.415 351.042 422.124C351.063 423.292 351.235 424.78 351.424 425.43C351.614 426.08 351.771 426.989 351.774 427.451C351.777 427.911 351.973 428.717 352.211 429.241C352.45 429.763 352.644 430.5 352.645 430.877C352.646 431.254 352.803 431.857 352.992 432.217C353.182 432.577 353.421 433.313 353.522 433.853C353.788 435.275 354.434 437.13 355.382 439.198C355.547 439.558 355.993 440.59 356.372 441.489C356.752 442.389 357.153 443.273 357.264 443.453C357.622 444.035 358.079 445.098 358.231 445.701C358.373 446.266 358.35 446.283 357.644 446.169C355.238 445.778 350.066 444.021 347.503 442.721C344.832 441.368 341.193 439.055 339.081 437.367C335.203 434.269 331.221 430.161 328.91 426.874C328.308 426.018 327.469 424.857 327.046 424.295C326.623 423.731 326.153 423.026 326.001 422.726C325.85 422.426 325.287 421.592 324.749 420.872C324.212 420.151 323.652 419.317 323.504 419.017C323.357 418.716 322.912 418.04 322.518 417.513C322.123 416.985 321.8 416.477 321.8 416.381C321.8 416.286 321.379 415.594 320.864 414.844C319.914 413.46 318.885 412.765 318.309 413.12C317.867 413.393 317.776 416.77 318.166 418.426C318.342 419.171 318.537 420.293 318.601 420.92C318.802 422.918 320.218 427.117 321.84 430.53C322.54 432.002 323.112 433.346 323.112 433.517C323.112 433.931 322.744 434.141 322.554 433.835C322.471 433.702 322.132 433.478 321.799 433.338C320.634 432.85 317.924 430.399 315.063 427.247C313.475 425.497 312.175 424.009 312.175 423.94C312.175 423.871 311.609 422.956 310.917 421.906C310.225 420.857 309.493 419.704 309.29 419.344C308.386 417.743 307.129 415.186 306.942 414.567C306.829 414.194 306.498 413.202 306.206 412.363C305.914 411.523 305.503 410.197 305.291 409.417C305.079 408.637 304.77 407.564 304.603 407.033C304.436 406.501 304.3 405.762 304.3 405.389C304.3 405.017 304.146 404.175 303.957 403.519C303.768 402.863 303.529 401.148 303.426 399.708C303.322 398.267 303.084 396.451 302.896 395.671C302.412 393.651 302.403 382.715 302.884 380.254C303.067 379.314 303.273 377.218 303.34 375.599C303.411 373.854 303.632 371.947 303.88 370.921C304.111 369.968 304.301 368.692 304.302 368.084C304.304 367.477 304.439 366.539 304.603 365.998C304.767 365.458 304.975 364.378 305.065 363.599C305.156 362.819 305.317 361.95 305.423 361.669C305.53 361.388 305.632 360.749 305.651 360.25C305.67 359.752 305.815 359.031 305.974 358.649C306.133 358.266 306.328 357.26 306.407 356.413C306.523 355.159 306.492 354.871 306.239 354.871C305.636 354.871 305.011 355.522 304.416 356.771C304.085 357.466 303.724 358.182 303.615 358.362C303.205 359.038 302.184 360.65 301.08 362.368C300.452 363.345 299.615 364.663 299.22 365.297C297.48 368.092 293.692 373.676 292.437 375.298C288.923 379.837 282.708 386.338 279.088 389.261C278.096 390.062 276.891 391.08 276.409 391.522C275.928 391.966 274.894 392.8 274.112 393.378C273.33 393.956 272.611 394.561 272.516 394.723C272.419 394.884 272.243 395.016 272.123 395.016C271.885 395.016 271.097 395.547 269.369 396.871C267.206 398.53 266.333 399.139 265.903 399.292C265.665 399.378 265.298 399.596 265.085 399.778C264.872 399.96 264.217 400.411 263.628 400.781C263.039 401.15 261.509 402.165 260.229 403.035C258.949 403.905 257.85 404.617 257.788 404.617C257.726 404.617 257.238 404.917 256.704 405.284C256.169 405.65 255.413 406.095 255.023 406.27C254.634 406.447 253.823 406.88 253.221 407.233C252.057 407.916 247.167 410.352 245.347 411.157C244.745 411.424 243.809 411.841 243.268 412.085C241.914 412.696 240.253 413.441 239.298 413.863C238.858 414.058 238.311 414.217 238.082 414.217C237.852 414.217 237.473 414.361 237.239 414.537C237.006 414.713 236.667 414.86 236.487 414.865C236.306 414.868 235.272 415.152 234.19 415.494C230.717 416.592 227.393 417.452 225.55 417.73C224.767 417.847 223.685 418.078 223.143 418.243C222.601 418.408 221.075 418.6 219.752 418.671C218.429 418.742 216.313 418.893 215.049 419.008C211.673 419.314 208.05 419.278 205.087 418.909C203.649 418.73 201.966 418.583 201.35 418.582C200.733 418.582 199.831 418.441 199.345 418.269C198.859 418.098 197.984 417.888 197.403 417.801C194.896 417.429 187.969 414.68 186.869 413.622C186.164 412.943 185.09 413.468 184.415 414.82C184.251 415.148 183.913 415.712 183.662 416.072C183.412 416.431 183.083 416.971 182.933 417.271C181.66 419.807 176.052 426.486 173.131 428.944C172.424 429.539 171.795 430.095 171.732 430.178C171.559 430.414 167.564 433.052 166.239 433.804C165.593 434.172 164.228 434.829 163.205 435.264C162.183 435.699 161.085 436.198 160.765 436.373C159.964 436.81 159.487 436.772 159.487 436.271C159.487 435.873 159.604 435.578 160.439 433.89C160.637 433.491 160.798 433.005 160.798 432.813C160.798 432.621 160.978 432.065 161.198 431.577C161.755 430.335 162.071 429.451 162.865 426.923C163.063 426.291 163.388 424.449 163.585 422.829C163.894 420.303 163.905 419.642 163.662 418.196C163.314 416.12 163.122 415.744 162.419 415.744C161.961 415.744 161.771 415.955 161.293 416.998C160.093 419.619 155.791 426.129 153.484 428.817C150.82 431.92 149.741 432.966 147.319 434.781C144.523 436.879 142.634 438.036 140.056 439.233C137.228 440.547 137.065 440.506 137.721 438.65C138.099 437.582 138.766 433.871 139.152 430.689C139.495 427.869 139.506 417.177 139.17 413.235C138.926 410.372 138.384 406.311 138.125 405.423C138.045 405.144 137.839 405.048 137.428 405.095C136.829 405.164 136.76 405.267 135.629 407.781C134.906 409.391 132.451 413.628 131.035 415.708C129.352 418.183 125.476 422.251 123.193 423.937C122.159 424.702 120.978 425.575 120.568 425.88C119.809 426.445 119.236 426.597 119.236 426.235C119.236 426.125 119.426 425.594 119.657 425.055C120.384 423.364 122.573 416.786 122.864 415.417C123.018 414.697 123.242 413.715 123.363 413.235C124.209 409.882 124.927 403.417 124.925 399.162C124.923 393.531 124.114 384.392 123.283 380.617C123.112 379.837 122.907 378.806 122.828 378.326C122.749 377.846 122.396 376.471 122.043 375.272C121.691 374.071 121.153 372.206 120.848 371.126C119.925 367.864 119.718 367.203 118.903 364.908C118.388 363.458 116.807 359.342 116.515 358.69C116.131 357.837 114.946 354.699 114.742 353.998C114.459 353.03 111.988 348.4 111.439 347.809C110.424 346.718 109.83 347.276 109.777 349.368C109.71 352.069 110.204 357.436 110.57 357.955C110.803 358.287 110.923 358.918 110.923 359.802C110.923 360.54 111.071 361.561 111.251 362.071C111.432 362.581 111.58 363.488 111.58 364.085C111.58 364.684 111.722 365.824 111.895 366.622C112.221 368.125 112.599 370.785 112.894 373.67C112.987 374.59 113.165 375.67 113.287 376.071C113.409 376.471 113.569 377.436 113.641 378.216C113.713 378.997 113.919 380.117 114.098 380.706C114.277 381.295 114.426 382.178 114.431 382.67C114.434 383.161 114.628 384.102 114.861 384.762C115.387 386.254 115.446 388.035 114.97 388.035C114.79 388.035 114.642 387.897 114.642 387.729C114.642 387.461 113.536 385.094 112.412 382.958C112.208 382.57 111.633 381.272 111.133 380.071C110.634 378.871 110.139 377.693 110.033 377.453C109.793 376.907 109.215 375.278 108.934 374.355C108.817 373.971 108.578 373.382 108.402 373.046C108.226 372.71 108.081 372.267 108.081 372.061C108.08 371.855 107.94 371.363 107.77 370.97C107.327 369.945 106.647 367.681 106.211 365.78C106.005 364.88 105.701 363.748 105.536 363.264C105.37 362.78 105.231 362.044 105.226 361.628C105.221 361.212 105.074 360.478 104.899 359.998C104.725 359.518 104.523 358.438 104.449 357.599C104.376 356.759 104.164 355.482 103.981 354.763C103.476 352.787 103.464 335.88 103.966 334.144C104.157 333.484 104.373 332.208 104.446 331.308C104.518 330.408 104.722 329.279 104.897 328.799C105.073 328.319 105.221 327.64 105.226 327.29C105.231 326.941 105.376 326.156 105.549 325.545C105.722 324.935 106.028 323.797 106.231 323.017C106.648 321.407 107.285 319.062 107.742 317.453C107.913 316.853 108.266 315.528 108.527 314.508C108.788 313.488 109.138 312.331 109.305 311.937C109.473 311.543 109.611 311.009 109.611 310.752C109.611 310.494 109.813 309.639 110.061 308.85C110.308 308.062 110.594 307.122 110.696 306.762C112.028 302.061 112.569 300.271 112.916 299.413C113.143 298.85 113.329 298.241 113.329 298.056C113.329 297.873 113.467 297.4 113.635 297.006C113.803 296.612 114.154 295.504 114.416 294.544C114.677 293.584 114.988 292.504 115.107 292.144C115.412 291.217 116.592 286.721 116.938 285.163C117.098 284.442 117.335 283.577 117.467 283.239C117.597 282.901 117.705 282.256 117.705 281.806C117.705 281.355 117.858 280.471 118.046 279.841C118.504 278.301 118.404 277.547 117.728 277.452C117.088 277.362 116.255 278.288 116.049 279.318C115.972 279.703 115.771 280.133 115.604 280.272C115.436 280.411 115.299 280.635 115.3 280.771C115.302 281.008 112.647 286.301 111.712 287.925C110.102 290.719 108.359 293.011 105.585 295.983C104.373 297.282 100.789 299.889 100.216 299.889C99.8503 299.889 99.9607 299.391 100.457 298.799ZM134.196 372.762C134.036 371.383 133.797 369.876 133.665 369.415C133.533 368.954 133.29 367.874 133.125 367.015C132.82 365.428 132.618 364.607 131.912 362.071C130.63 357.479 128.622 350.372 128.089 348.544C126.018 341.45 125.195 336.872 125.013 331.416C124.874 327.286 125.119 322.56 125.679 318.544C125.864 317.224 126.117 315.309 126.242 314.29C126.366 313.27 126.61 311.699 126.782 310.799C126.954 309.899 127.197 308.524 127.323 307.744C127.654 305.686 127.963 303.934 128.329 302.046C128.688 300.193 128.602 299.728 127.849 299.442C127.053 299.14 126.767 299.373 126.138 300.832C125.817 301.573 125.413 302.441 125.239 302.759C125.066 303.078 124.923 303.5 124.923 303.698C124.923 303.895 124.754 304.371 124.548 304.755C124.342 305.139 124.056 305.846 123.913 306.325C123.77 306.806 123.492 307.738 123.295 308.398C123.099 309.059 122.69 310.58 122.388 311.78C122.085 312.98 121.695 314.44 121.521 315.023C121.347 315.608 121.201 316.442 121.197 316.878C121.192 317.314 121.049 317.917 120.877 318.217C120.705 318.517 120.556 319.302 120.546 319.963C120.537 320.622 120.38 321.555 120.198 322.035C119.159 324.773 119.117 335.523 120.132 338.913C120.361 339.675 120.552 340.706 120.556 341.204C120.56 341.701 120.705 342.353 120.877 342.653C121.049 342.953 121.192 343.493 121.196 343.853C121.199 344.213 121.344 344.949 121.516 345.489C121.688 346.029 122.344 348.091 122.975 350.071C124.014 353.339 124.342 354.229 125.27 356.289C125.432 356.649 125.632 357.239 125.714 357.599C125.797 357.959 125.997 358.447 126.159 358.684C126.322 358.92 126.455 359.347 126.455 359.632C126.455 359.917 126.592 360.46 126.76 360.838C126.928 361.216 127.574 363.146 128.196 365.126C128.819 367.106 129.433 369.02 129.56 369.38C129.687 369.74 129.903 370.526 130.042 371.126C130.181 371.726 130.414 372.431 130.561 372.693C130.709 372.955 130.83 373.468 130.83 373.831C130.83 374.194 130.975 374.92 131.153 375.443C131.331 375.965 131.577 377.024 131.699 377.796C132.182 380.83 132.55 382.237 132.931 382.516C133.45 382.894 133.597 382.875 134.111 382.362C134.513 381.961 134.546 381.658 134.518 378.599C134.502 376.769 134.357 374.142 134.196 372.762ZM182.598 242.726C182.456 241.826 182.057 240.511 181.711 239.803C180.934 238.217 178.328 235.423 177.315 235.089C176.913 234.957 176.461 234.701 176.312 234.522C176.162 234.342 175.588 233.997 175.036 233.756C174.484 233.515 173.738 233.187 173.377 233.027C172.365 232.578 170.376 231.87 169.768 231.74C168.772 231.529 167.266 231.137 166.239 230.819C165.68 230.648 164.826 230.507 164.338 230.507C163.851 230.507 163.175 230.395 162.836 230.258C162.497 230.12 160.892 229.876 159.267 229.715C151.11 228.904 150.892 228.894 147.318 229.158C145.408 229.299 142.418 229.516 140.674 229.64C138.929 229.763 137.066 230.008 136.533 230.186C136 230.363 135.087 230.507 134.502 230.507C133.918 230.507 133.087 230.655 132.656 230.835C132.224 231.015 131.599 231.162 131.266 231.162C129.896 231.162 126.125 232.913 124.317 234.388C123.361 235.168 122.08 236.861 122.08 237.345C122.08 237.492 121.883 238.172 121.642 238.856C121.257 239.947 121.206 240.63 121.221 244.52C121.23 246.954 121.331 249.484 121.447 250.144C121.564 250.804 121.749 252.022 121.859 252.851C122.072 254.445 122.573 256.657 123.05 258.108C123.209 258.587 123.503 259.52 123.706 260.18C124.042 261.277 124.707 262.854 125.176 263.671C125.28 263.851 125.475 264.244 125.612 264.544C126.274 266.005 126.794 267.064 126.897 267.162C126.959 267.222 127.124 267.517 127.261 267.817C127.915 269.237 131.519 272.681 133.898 274.157C135.553 275.184 138.432 276.544 138.952 276.544C139.081 276.544 139.496 276.691 139.875 276.87C140.955 277.38 142.83 277.869 144.502 278.076C145.343 278.18 146.771 278.366 147.674 278.489C150.132 278.824 156.873 278.768 158.94 278.395C159.902 278.222 161.062 278.078 161.517 278.076C161.971 278.073 162.697 277.924 163.129 277.744C163.561 277.564 164.106 277.417 164.34 277.417C165.139 277.417 169.012 275.65 170.314 274.692C170.675 274.426 171.266 274.056 171.627 273.87C172.632 273.353 174.715 271.378 175.446 270.247C175.807 269.691 176.465 268.695 176.908 268.035C178.246 266.044 179.871 262.469 180.185 260.828C180.265 260.412 180.464 259.806 180.627 259.482C180.79 259.158 180.924 258.618 180.925 258.282C180.926 257.946 181.083 257.376 181.275 257.016C181.466 256.656 181.675 255.773 181.741 255.053C181.806 254.333 181.994 253.477 182.16 253.15C182.673 252.135 182.97 245.096 182.598 242.726ZM218.305 76.5654C217.99 76.3706 215.663 76.6454 213.517 77.1305C212.495 77.3618 210.081 77.8913 208.152 78.3077C206.225 78.7233 204.372 79.1676 204.036 79.2945C203.702 79.4215 203.16 79.5258 202.833 79.5258C202.507 79.5258 202.046 79.6588 201.809 79.8223C201.571 79.9849 201.012 80.1848 200.566 80.2666C200.12 80.3483 199.48 80.5578 199.144 80.7326C198.808 80.9073 198.352 81.0508 198.129 81.0516C197.908 81.0525 197.464 81.196 197.145 81.3707C196.475 81.7368 191.851 83.6017 190.877 83.899C189.893 84.199 182.22 88.1314 181.361 88.7757C181.181 88.9113 180.689 89.2095 180.268 89.4399C178.966 90.1503 176.365 92.143 175.986 92.7203C175.46 93.5211 175.715 93.9262 176.748 93.9262C177.226 93.9262 177.675 94.0201 177.747 94.1358C177.965 94.4887 176.844 96.4319 175.991 97.1796C175.548 97.5674 174.85 98.0439 174.441 98.2386C173.747 98.5681 173.67 98.5664 173.317 98.2143C173.034 97.9317 172.939 97.47 172.939 96.3719C172.939 94.9643 172.918 94.9052 172.381 94.8426C171.835 94.7791 170.066 96.1094 164.627 100.671C161.99 102.882 155.772 109.534 153.085 113.016C148.655 118.757 144.01 127.061 141.245 134.18C140.826 135.26 140.413 136.439 140.329 136.799C140.245 137.159 140.1 137.551 140.007 137.671C139.819 137.915 139.023 140.201 138.602 141.708C137.528 145.551 136.951 147.778 136.537 149.671C136.274 150.872 135.921 152.491 135.751 153.271C135.581 154.051 135.38 155.18 135.304 155.78C135.228 156.38 135.035 157.411 134.874 158.071C134.252 160.617 133.383 167.676 133.021 173.126C132.905 174.866 132.71 177.419 132.588 178.799C132.465 180.178 132.364 182.049 132.363 182.955C132.36 185.545 132.904 185.753 134.756 183.871C135.973 182.635 142.244 177.489 142.533 177.489C142.615 177.489 143.239 177.112 143.92 176.651C146.019 175.229 147.277 174.471 148.728 173.751C149.248 173.492 149.804 173.075 149.964 172.822C150.179 172.48 150.292 170.582 150.407 165.4C150.515 160.56 150.65 158.19 150.85 157.624C151.007 157.177 151.209 155.894 151.296 154.773C151.385 153.652 151.577 152.438 151.725 152.076C151.873 151.713 152.06 150.804 152.141 150.054C152.222 149.305 152.432 148.351 152.606 147.934C152.781 147.517 152.924 146.931 152.924 146.631C152.924 146.332 153.058 145.666 153.222 145.152C153.387 144.638 153.888 142.793 154.336 141.053C154.785 139.313 155.29 137.629 155.459 137.31C155.629 136.992 155.767 136.537 155.767 136.301C155.767 136.064 155.915 135.748 156.096 135.598C156.276 135.45 156.423 135.066 156.423 134.748C156.423 134.429 156.59 133.932 156.792 133.645C156.994 133.356 157.552 132.377 158.031 131.468C158.51 130.56 159.083 129.523 159.305 129.162C159.526 128.802 159.855 128.189 160.037 127.799C160.219 127.408 160.445 127.089 160.542 127.089C160.639 127.089 160.872 126.771 161.06 126.38C161.384 125.708 162.391 124.388 165.002 121.211C166.82 118.999 173.061 112.908 173.51 112.908C173.652 112.908 174.173 112.585 174.667 112.19C175.406 111.6 178.51 109.526 180.377 108.376C181.754 107.529 188.394 104.522 189.61 104.197C190.116 104.061 190.586 103.86 190.654 103.751C190.722 103.641 191.243 103.484 191.812 103.401C192.381 103.319 193.092 103.13 193.393 102.982C193.694 102.834 194.733 102.655 195.704 102.584C196.674 102.513 197.739 102.352 198.069 102.227C198.401 102.102 199.249 101.999 199.955 101.999C201.698 101.999 202.289 101.74 202.55 100.863C202.668 100.468 202.982 99.6036 203.248 98.9437C203.515 98.2838 203.951 97.1553 204.219 96.4345C204.851 94.7365 205.384 93.4628 205.634 93.0533C205.745 92.8733 206.184 92.0387 206.612 91.1988C207.039 90.3589 207.743 89.2295 208.174 88.6896C208.604 88.1497 209.221 87.3759 209.542 86.9708C209.864 86.5647 210.31 85.8857 210.534 85.4605C211.008 84.5607 217.106 78.2877 217.685 78.1043C218.152 77.9565 218.632 76.7662 218.305 76.5654ZM307.477 253.167C307.409 253.099 307.262 250.696 307.153 247.829C307.011 244.089 306.862 242.371 306.622 241.744C306.438 241.264 306.283 240.457 306.278 239.952C306.271 239.272 306.158 238.973 305.845 238.806C305.344 238.538 297.034 238.531 293.471 238.796C284.815 239.438 284.229 239.615 282.31 242.162C281.669 243.012 281.08 244.002 281.001 244.362C280.921 244.723 280.717 245.387 280.546 245.839C280.376 246.292 280.234 247.028 280.232 247.475C280.228 247.923 280.034 249.124 279.8 250.144C279.565 251.164 279.371 252.403 279.368 252.899C279.365 253.393 279.215 254.216 279.034 254.725C278.854 255.236 278.706 256.215 278.706 256.901C278.706 257.586 278.559 258.629 278.38 259.219C278.201 259.807 278.053 260.507 278.052 260.772C278.05 261.038 277.914 261.677 277.748 262.191C277.583 262.705 277.284 263.666 277.086 264.326C276.545 266.122 275.227 269.096 274.266 270.687C274.001 271.126 273.46 272.04 273.064 272.718C271.992 274.554 266.923 279.38 266.067 279.38C265.97 279.38 264.984 279.822 263.879 280.362C261.549 281.5 259.731 282.217 259.175 282.217C258.96 282.217 258.564 282.36 258.295 282.536C258.026 282.712 257.218 282.917 256.498 282.992C255.779 283.066 254.698 283.284 254.097 283.473C252.479 283.984 237.655 283.951 236.439 283.435C235.976 283.239 235.013 283.09 234.205 283.09C233.3 283.09 232.382 282.931 231.674 282.653C231.064 282.413 230.333 282.217 230.052 282.217C229.193 282.217 223.989 280.206 222.049 279.123C221.868 279.023 221.475 278.819 221.175 278.67C219.874 278.025 217.451 276.189 215.775 274.58C214.055 272.928 213.628 272.398 212.096 270.014C211.735 269.452 211.218 268.715 210.947 268.376C210.677 268.036 210.455 267.667 210.455 267.555C210.455 267.444 209.619 265.685 208.596 263.646C207.573 261.608 206.733 259.773 206.73 259.569C206.725 259.366 206.578 259.008 206.401 258.775C206.225 258.542 206.08 258.145 206.08 257.891C206.08 257.638 205.974 257.325 205.845 257.196C205.715 257.067 205.524 256.63 205.42 256.225C205.209 255.409 204.662 253.717 204.23 252.544C203.958 251.808 203.588 250.43 203.231 248.835C202.75 246.678 201.391 243.957 200.353 243.07C198.827 241.767 197.825 241.417 195.616 241.417C193.806 241.417 193.505 241.479 192.359 242.091C190.668 242.993 189.337 244.323 188.67 245.775C188.207 246.787 188.106 247.389 188.016 249.692C187.957 251.229 187.771 252.827 187.589 253.36C187.412 253.879 187.264 254.572 187.26 254.897C187.256 255.223 187.111 255.735 186.94 256.035C186.768 256.335 186.62 256.826 186.612 257.126C186.603 257.426 186.407 258.064 186.174 258.544C185.942 259.024 185.748 259.544 185.743 259.699C185.735 260.034 183.631 266.515 183.194 267.551C183.028 267.945 182.893 268.468 182.893 268.711C182.893 268.955 182.781 269.362 182.646 269.615C182.509 269.869 182.274 270.624 182.124 271.293C181.974 271.961 181.748 272.802 181.624 273.162C181.499 273.523 181.286 274.258 181.151 274.799C181.015 275.339 180.77 276.222 180.604 276.762C180.021 278.666 179.369 280.806 179.176 281.453C178.791 282.738 178.247 284.3 177.947 284.977C177.779 285.355 177.643 285.809 177.643 285.987C177.643 286.164 177.495 286.661 177.314 287.092C177.134 287.523 176.986 288.226 176.986 288.653C176.986 289.081 176.839 289.783 176.658 290.214C176.241 291.211 176.244 293.103 176.665 293.659C176.841 293.892 176.986 294.269 176.986 294.498C176.986 295.186 179.147 297.926 179.69 297.926C179.804 297.926 180.203 298.157 180.575 298.44C181.732 299.318 184.893 300.69 186.633 301.07C190.263 301.861 193.148 301.408 197.33 299.39C201.731 297.267 201.974 297.193 204.511 297.208C206.687 297.221 206.793 297.244 207.419 297.842C207.981 298.378 208.06 298.597 208.004 299.449C207.983 299.778 207.961 300.106 207.94 300.435C207.101 300.479 206.263 300.523 205.424 300.567C202.502 300.722 201.228 301.145 197.549 303.186C194.86 304.677 191.686 305.471 189.345 305.237C186.765 304.979 183.43 304.401 182.849 304.111C182.524 303.949 182.02 303.817 181.73 303.817C181.44 303.817 180.951 303.621 180.645 303.381C180.34 303.141 179.957 302.943 179.796 302.942C179.3 302.938 176.597 300.787 175.438 299.475C174.228 298.103 173.373 296.482 172.896 294.653C172.112 291.649 172.121 291.823 172.641 289.747C172.911 288.666 173.47 286.602 173.883 285.163C174.296 283.722 174.751 282.053 174.894 281.453C175.037 280.853 175.258 280.116 175.386 279.816C175.513 279.516 175.794 278.704 176.011 278.011C176.654 275.954 176.094 275.844 173.606 277.543C171.807 278.771 169.628 279.864 167.799 280.455C167.017 280.708 166.206 281.011 165.997 281.129C165.788 281.248 165.313 281.344 164.94 281.344C164.567 281.344 163.458 281.553 162.476 281.808C160.82 282.239 160.128 282.273 153.033 282.278C145.77 282.282 145.305 282.258 143.981 281.814C143.213 281.555 142.3 281.344 141.951 281.344C141.601 281.344 140.962 281.197 140.53 281.017C139.539 280.603 138.258 280.596 137.707 281.001C137.32 281.286 137.288 281.558 137.339 284.111C137.445 289.522 138.321 297.015 139.143 299.553C139.38 300.286 139.888 302.184 140.341 304.035C140.842 306.085 143.046 314.789 143.297 315.708C143.934 318.047 144.175 318.856 144.569 319.963C145.036 321.275 147.329 326.277 148.173 327.827C148.466 328.361 149.349 330.026 150.138 331.526C152.474 335.968 153.015 336.845 153.635 337.192C154.166 337.489 154.26 337.486 154.574 337.173C154.91 336.838 154.998 336.584 155.557 334.362C155.692 333.822 155.902 333.086 156.023 332.726C156.144 332.366 156.32 331.765 156.413 331.391C156.569 330.77 157.342 329.11 158.174 327.61C158.355 327.285 158.871 326.575 159.322 326.031C159.773 325.489 160.142 324.973 160.142 324.886C160.142 324.615 161.28 323.59 162.986 322.324C163.888 321.654 164.824 320.923 165.065 320.698C165.305 320.474 165.846 320.03 166.268 319.714C166.689 319.397 167.274 318.927 167.57 318.669C167.864 318.41 168.504 318.008 168.991 317.775C169.478 317.543 170.32 317.007 170.861 316.586C171.403 316.165 172.362 315.515 172.994 315.143C173.626 314.771 174.143 314.383 174.143 314.283C174.143 314.183 174.338 314.038 174.578 313.963C174.818 313.887 175.504 313.438 176.103 312.966C176.702 312.494 177.331 312.108 177.5 312.108C177.669 312.108 177.933 311.957 178.086 311.772C178.327 311.483 179.993 310.451 181.681 309.543C181.961 309.393 182.766 309.21 183.472 309.138C184.676 309.015 184.849 309.061 186.393 309.908C189.796 311.779 190.783 312.159 192.518 312.27C193.987 312.364 194.34 312.302 195.908 311.679C196.87 311.297 198.024 310.771 198.47 310.51C198.917 310.248 199.813 309.723 200.46 309.343C201.99 308.444 204.178 308.161 206.936 308.505C208.007 308.639 209.016 308.852 209.177 308.978C209.442 309.185 210.563 309.708 215.049 311.715C215.831 312.065 216.815 312.506 217.237 312.696C217.962 313.021 218.774 313.375 220.518 314.123C221.886 314.709 222.372 314.937 222.706 315.15C222.886 315.266 224.117 315.869 225.44 316.492C230.742 318.984 231.617 319.423 232.901 320.222C233.636 320.679 234.308 321.053 234.395 321.053C234.482 321.053 235.062 321.382 235.685 321.785C236.306 322.187 237.405 322.868 238.128 323.299C238.849 323.731 239.747 324.358 240.122 324.696C240.498 325.032 241.358 325.764 242.034 326.322C243.408 327.456 244.939 329.235 246.229 331.198C247.763 333.531 248.253 334.509 249.622 337.962C250.002 338.922 250.451 340.017 250.619 340.395C250.787 340.773 250.927 341.265 250.932 341.486C250.936 341.708 251.129 342.282 251.362 342.763C251.594 343.243 251.788 343.91 251.792 344.246C251.796 344.581 251.936 345.122 252.102 345.446C252.268 345.77 252.477 346.565 252.565 347.214C252.652 347.862 252.861 348.718 253.028 349.116C253.194 349.514 253.331 350.14 253.331 350.507C253.331 351.57 253.884 352.656 254.507 352.811C255.193 352.983 256.383 352.079 257.79 350.315C258.327 349.641 258.996 348.841 259.276 348.536C260.525 347.176 262.737 343.118 262.737 342.185C262.737 342.011 262.826 341.775 262.934 341.66C263.041 341.546 263.442 340.668 263.823 339.708C264.205 338.748 264.638 337.816 264.785 337.636C264.932 337.456 265.192 337.03 265.363 336.69C265.749 335.924 268.493 333.318 269.196 333.051C269.771 332.833 272.938 330.55 273.456 329.98C273.636 329.782 274.419 329.19 275.195 328.664C275.971 328.138 276.857 327.452 277.164 327.139C277.47 326.826 278.362 326.048 279.143 325.41C279.926 324.772 280.729 324.096 280.928 323.906C281.127 323.717 282.147 322.777 283.194 321.817C285.661 319.553 288.702 316.539 290.628 314.448C292.231 312.707 292.247 312.687 293.174 311.322C293.492 310.854 293.936 310.275 294.159 310.035C295.109 309.015 297.3 305.373 297.3 304.814C297.3 304.654 297.455 304.396 297.646 304.238C297.836 304.081 298.175 303.602 298.399 303.176C299.951 300.213 301.89 295.783 301.901 295.172C301.904 294.947 302.052 294.572 302.228 294.339C302.405 294.106 302.55 293.664 302.551 293.357C302.552 293.05 302.714 292.504 302.91 292.144C303.107 291.784 303.345 291.096 303.439 290.617C303.533 290.137 303.756 289.302 303.933 288.762C304.111 288.222 304.42 286.995 304.621 286.035C304.822 285.075 305.126 283.652 305.298 282.872C305.469 282.091 305.65 280.909 305.699 280.244C305.749 279.58 305.888 278.647 306.008 278.171C306.128 277.697 306.288 276.167 306.364 274.772C306.44 273.377 306.599 271.905 306.718 271.499C307.017 270.482 307.724 253.413 307.477 253.167ZM165.573 225.758C165.426 225.61 165.193 225.49 165.054 225.49C164.917 225.49 164.626 225.293 164.408 225.053C164.19 224.813 163.752 224.617 163.434 224.617C163.116 224.617 162.743 224.506 162.608 224.37C162.369 224.132 160.724 223.484 159.377 223.098C158.313 222.793 157.242 222.396 156.423 222.003C156.003 221.801 155.067 221.464 154.346 221.253C153.624 221.043 152.738 220.768 152.377 220.644C152.015 220.518 151.081 220.325 150.298 220.214C149.517 220.102 148.385 219.909 147.783 219.785C145.659 219.344 140.496 219.963 138.99 220.838C137.823 221.517 137.552 222.276 137.818 224.118C137.925 224.864 138.08 225.581 138.161 225.713C138.496 226.253 139.365 226.355 140.802 226.023C141.94 225.759 143.866 225.69 150.15 225.683C157.429 225.676 158.256 225.713 160.463 226.151C163.458 226.747 165.677 226.833 165.774 226.358C165.812 226.175 165.722 225.905 165.573 225.758ZM302.638 226.257C302.228 225.299 301.894 224.422 301.894 224.307C301.894 224.102 301.514 223.231 300.41 220.908C300.097 220.248 299.133 218.48 298.269 216.981C297.405 215.48 296.63 214.032 296.547 213.762C296.463 213.493 296.314 213.272 296.215 213.272C296.116 213.272 295.97 213.013 295.891 212.7C295.812 212.385 295.324 211.378 294.808 210.463C294.02 209.067 292.579 206.169 291.808 204.435C291.535 203.819 290.116 200.045 289.716 198.871C289.533 198.331 289.255 197.595 289.099 197.235C288.943 196.875 288.742 196.239 288.653 195.82C288.564 195.401 288.368 194.861 288.217 194.62C288.065 194.378 287.874 193.71 287.793 193.136C287.711 192.561 287.505 191.754 287.332 191.343C287.159 190.932 287.019 190.041 287.019 189.367C287.019 188.691 286.887 187.878 286.727 187.559C286.566 187.241 286.296 186.696 286.126 186.348C285.73 185.541 284.321 184.825 280.976 183.73C279.547 183.262 277.885 182.704 277.284 182.489C274.984 181.67 268.831 179.855 266.659 179.355C265.989 179.2 265.232 178.963 264.978 178.827C264.724 178.692 264.19 178.58 263.791 178.579C263.392 178.579 262.788 178.433 262.449 178.258C262.111 178.081 261.323 177.872 260.7 177.793C260.076 177.714 259.299 177.514 258.974 177.351C258.65 177.187 258.158 177.055 257.88 177.056C257.604 177.058 256.738 176.871 255.955 176.641C254.35 176.169 252.337 175.714 249.612 175.207C248.59 175.017 247.112 174.72 246.331 174.548C245.548 174.376 244.331 174.179 243.626 174.112C242.92 174.043 242.148 173.884 241.911 173.757C241.672 173.629 240.724 173.476 239.803 173.414C238.881 173.353 237.734 173.168 237.252 173.004C236.771 172.84 235.344 172.607 234.08 172.488C232.817 172.369 231.341 172.174 230.799 172.054C230.258 171.934 229.258 171.832 228.576 171.827C227.895 171.821 226.566 171.668 225.623 171.488C224.68 171.306 222.432 171.061 220.628 170.942C218.823 170.822 216.313 170.631 215.049 170.516C212.041 170.244 191.507 170.244 188.69 170.516C187.487 170.633 185.075 170.822 183.33 170.936C181.586 171.051 179.37 171.295 178.408 171.481C177.446 171.665 176.131 171.817 175.487 171.817C174.842 171.817 173.759 171.957 173.08 172.127C172.401 172.299 171.062 172.509 170.106 172.594C169.149 172.68 168.044 172.883 167.651 173.046C167.259 173.21 166.495 173.344 165.954 173.344C165.413 173.344 164.548 173.486 164.033 173.659C163.517 173.832 162.554 174.044 161.892 174.13C161.231 174.216 160.372 174.418 159.986 174.578C159.598 174.74 159.049 174.871 158.766 174.871C158.213 174.871 154.486 176.047 153.58 176.508C153.279 176.661 152.787 176.897 152.486 177.033C152.185 177.168 151.545 177.52 151.064 177.814C150.583 178.107 149.891 178.49 149.525 178.666C147.722 179.529 144.498 182.442 143.582 184.035C143.047 184.963 142.517 187.182 142.199 189.817C141.965 191.754 141.412 194.565 140.805 196.908C138.623 205.326 138.071 208.3 137.906 212.558C137.714 217.509 137.758 217.54 141.888 215.249C143.198 214.522 144.617 213.863 145.042 213.785C145.467 213.706 146.042 213.494 146.32 213.313C147.034 212.85 153.663 212.863 154.59 213.33C154.937 213.505 155.795 213.712 156.497 213.791C157.199 213.87 158.055 214.079 158.401 214.258C158.745 214.435 159.302 214.581 159.64 214.582C159.976 214.582 160.547 214.737 160.908 214.925C161.269 215.113 161.958 215.347 162.439 215.444C163.277 215.613 164.672 215.996 167.033 216.702C167.635 216.881 168.619 217.165 169.221 217.333C169.822 217.501 170.625 217.785 171.004 217.964C171.383 218.143 171.924 218.293 172.207 218.296C172.49 218.3 172.911 218.447 173.145 218.624C173.379 218.8 173.766 218.944 174.006 218.944C174.245 218.944 174.842 219.127 175.331 219.351C175.821 219.575 176.713 219.932 177.314 220.146C180.098 221.135 181.361 222.129 181.361 223.33C181.361 223.671 181.116 224.483 180.817 225.137C180.245 226.382 179.55 226.957 178.025 227.443C177.03 227.761 176.719 228.542 177.322 229.208C177.536 229.442 177.798 229.635 177.904 229.635C178.011 229.635 178.365 229.82 178.691 230.045C179.657 230.713 182.782 232.523 184.397 233.348C185.223 233.77 186.059 234.249 186.256 234.413C186.687 234.769 189.554 234.583 191.172 234.093C192.54 233.679 197.693 233.678 199.251 234.092C199.887 234.261 201.133 234.467 202.023 234.55C203.475 234.686 203.763 234.644 204.858 234.144C205.528 233.838 206.594 233.262 207.227 232.863C207.859 232.464 208.623 231.997 208.924 231.824C209.225 231.652 210.209 231.086 211.112 230.566C212.014 230.047 212.998 229.564 213.299 229.494C214.317 229.254 214.83 228.79 214.83 228.109C214.83 227.545 214.684 227.397 213.655 226.911C212.284 226.265 211.509 225.262 211.1 223.603C210.859 222.629 210.869 222.379 211.18 221.727C211.376 221.313 211.909 220.724 212.364 220.416C213.23 219.831 215.092 218.944 215.457 218.944C215.574 218.944 215.948 218.809 216.289 218.643C217.167 218.218 218.944 217.628 219.971 217.422C220.452 217.324 221.142 217.14 221.502 217.011C221.863 216.882 222.897 216.585 223.799 216.35C224.702 216.116 225.735 215.825 226.096 215.706C227.717 215.168 229.883 214.579 230.268 214.573C230.5 214.569 231.084 214.376 231.565 214.144C232.046 213.912 232.834 213.715 233.314 213.707C233.796 213.699 234.436 213.552 234.737 213.38C235.038 213.209 235.696 213.065 236.199 213.06C236.703 213.056 237.392 212.941 237.73 212.805C238.388 212.541 240.725 212.152 244.8 211.631C252.591 210.634 254.787 210.669 259.018 211.855C259.559 212.008 260.368 212.195 260.814 212.274C261.26 212.351 261.9 212.558 262.235 212.733C262.572 212.907 262.997 213.051 263.18 213.052C263.364 213.053 263.709 213.187 263.946 213.351C264.184 213.515 264.605 213.719 264.884 213.806C265.162 213.893 266.836 214.785 268.602 215.79C271.97 217.702 274.089 219.325 273.809 219.776C273.588 220.134 271.816 220.096 270.523 219.706C269.932 219.526 269.083 219.38 268.635 219.38C268.187 219.38 267.468 219.233 267.036 219.053C266.604 218.873 265.87 218.726 265.404 218.726C264.938 218.726 264.073 218.578 263.483 218.397C260.747 217.56 251.607 217.557 249.283 218.393C248.803 218.566 247.984 218.711 247.465 218.716C246.945 218.721 246.318 218.834 246.069 218.966C245.821 219.1 245.114 219.286 244.498 219.384C243.38 219.559 242.94 219.698 239.221 221.045C237.498 221.67 235.08 222.659 232.844 223.655C232.465 223.824 232.017 223.962 231.849 223.962C231.08 223.962 230.751 224.997 231.361 225.501C231.804 225.869 232.529 225.855 235.721 225.417C239.09 224.954 247.238 224.935 251.362 225.38C252.986 225.556 255.103 225.701 256.067 225.703C257.03 225.705 258.162 225.807 258.582 225.93C259.003 226.052 260.282 226.25 261.424 226.369C262.567 226.488 263.798 226.675 264.159 226.784C264.52 226.892 265.406 227.037 266.128 227.104C266.849 227.172 267.834 227.372 268.315 227.549C268.796 227.726 269.732 227.877 270.393 227.887C271.089 227.896 271.776 228.039 272.021 228.223C272.255 228.4 272.898 228.544 273.451 228.544C274.003 228.544 275.015 228.741 275.7 228.981C276.385 229.221 277.329 229.417 277.798 229.417C278.267 229.417 279.081 229.588 279.608 229.799C280.474 230.144 281.601 230.18 291.503 230.184C297.519 230.186 302.661 230.114 302.933 230.026C303.664 229.786 303.555 228.402 302.638 226.257ZM153.597 392.5C153.414 390.606 153.031 388.228 152.686 386.835C152.034 384.207 151.869 383.653 151.66 383.402C151.535 383.25 151.36 382.733 151.271 382.253C151.183 381.773 150.978 381.186 150.815 380.95C150.651 380.713 150.517 380.299 150.517 380.028C150.517 379.759 150.305 379.068 150.046 378.495C148.561 375.208 147.873 373.435 147.693 372.435C147.607 371.955 147.419 371.348 147.276 371.085C147.134 370.824 147.017 370.293 147.017 369.907C147.017 369.52 146.719 368.574 146.355 367.805C145.578 366.167 145.107 366.061 144.641 367.42C143.792 369.894 144.216 373.842 145.929 379.417C146.519 381.337 147.111 383.301 147.245 383.781C147.379 384.261 147.587 384.997 147.708 385.417C147.829 385.837 148.064 386.965 148.231 387.926C148.398 388.886 148.628 390.113 148.742 390.653C149.308 393.33 149.185 405.914 148.566 408.654C148.458 409.133 148.304 410.41 148.225 411.49C148.051 413.862 148.307 414.459 149.348 414.102C150.049 413.862 151.025 412.115 151.292 410.622C151.378 410.145 151.572 409.555 151.723 409.313C151.875 409.07 152.066 408.479 152.147 407.999C152.228 407.519 152.429 406.635 152.595 406.035C153.446 402.948 153.95 396.139 153.597 392.5ZM217.519 152.616C216.546 149.817 215.746 148.787 213.814 147.844C213.23 147.56 212.457 147.177 212.096 146.995C211.048 146.464 202.481 146.225 194.267 146.497C190.477 146.622 187.033 146.831 186.611 146.963C186.19 147.095 184.517 147.287 182.893 147.391C181.268 147.496 179.546 147.728 179.064 147.908C178.532 148.106 177.375 148.242 176.111 148.253C174.902 148.264 173.668 148.403 173.158 148.587C172.677 148.76 171.741 148.902 171.079 148.904C170.416 148.906 169.53 149.01 169.109 149.136C168.689 149.261 167.509 149.504 166.486 149.674C163.849 150.113 161.813 150.541 161.531 150.716C161.397 150.799 160.907 150.919 160.441 150.985C159.976 151.052 159.251 151.242 158.83 151.409C158.408 151.576 157.802 151.769 157.48 151.837C157.158 151.906 156.61 152.245 156.263 152.592C155.618 153.236 155.636 153.174 154.559 158.398C154.209 160.096 153.535 167.969 153.681 168.653C153.733 168.893 153.833 169.458 153.906 169.91C153.99 170.433 154.224 170.851 154.553 171.067C155.022 171.372 155.148 171.369 155.911 171.036C156.373 170.835 157.145 170.589 157.627 170.489C158.108 170.39 159.141 170.154 159.924 169.964C163.029 169.211 164.721 168.889 170.205 168.01C173.925 167.413 175.511 167.213 178.896 166.91C180.728 166.746 182.334 166.546 182.466 166.465C182.596 166.384 184.937 166.236 187.666 166.135C190.394 166.034 194.679 165.841 197.187 165.705C200.529 165.523 202.784 165.521 205.632 165.695C210.812 166.013 212.128 165.698 214.706 163.526C216.194 162.272 216.819 161.28 217.536 159.024C218.002 157.56 217.992 153.978 217.519 152.616ZM247.407 141.926C246.668 135.19 245.698 132.836 242.96 131.138C241.978 130.529 239.121 129.715 237.952 129.711C237.375 129.71 236.605 129.554 236.242 129.367C235.275 128.869 222.9 128.875 221.701 129.375C221.2 129.583 220.217 129.708 219.063 129.708C217.922 129.708 216.924 129.832 216.437 130.035C216.006 130.215 215.344 130.364 214.968 130.368C214.126 130.374 211.72 131.001 209.56 131.78C208.669 132.1 207.528 132.459 207.025 132.577C206.521 132.695 205.993 132.933 205.85 133.104C205.706 133.276 205.276 133.417 204.892 133.417C204.508 133.417 204.004 133.561 203.77 133.737C203.537 133.913 203.05 134.061 202.69 134.065C202.329 134.071 201.781 134.205 201.471 134.366C200.514 134.864 199.744 134.972 197.157 134.969C195.176 134.967 194.356 134.867 193.205 134.487C192.406 134.224 191.604 133.924 191.424 133.82C191.243 133.717 190.948 133.574 190.768 133.504C190.587 133.432 189.645 132.992 188.673 132.523C187.701 132.054 186.76 131.671 186.582 131.671C186.403 131.671 186.067 131.527 185.833 131.351C185.599 131.175 185.191 131.028 184.927 131.024C184.662 131.02 183.878 130.869 183.186 130.689C181.413 130.229 176.115 130.245 174.178 130.717C168.986 131.983 164.624 134.893 160.825 139.625C159.375 141.43 159.301 141.548 158.277 143.671C157.844 144.572 157.397 145.478 157.284 145.686C157.001 146.212 157.029 147.024 157.342 147.336C157.694 147.688 158.744 147.662 159.814 147.277C160.296 147.104 161.096 146.959 161.592 146.954C162.089 146.949 162.849 146.797 163.281 146.617C163.713 146.437 164.508 146.29 165.05 146.29C165.591 146.29 166.455 146.151 166.971 145.984C167.486 145.815 168.563 145.611 169.364 145.531C170.165 145.451 171.288 145.246 171.86 145.074C172.432 144.903 173.332 144.762 173.861 144.762C174.389 144.762 175.481 144.622 176.287 144.45C177.093 144.279 178.604 144.078 179.647 144.004C180.689 143.93 181.871 143.767 182.273 143.642C182.673 143.518 184.676 143.331 186.721 143.228C188.766 143.126 190.784 142.938 191.203 142.811C191.685 142.666 195.134 142.581 200.52 142.581C207.469 142.581 209.275 142.641 210.147 142.905C210.738 143.084 211.621 143.231 212.111 143.233C212.6 143.234 213.51 143.386 214.132 143.57C214.754 143.754 216.667 143.994 218.383 144.105C220.098 144.214 222.388 144.403 223.471 144.525C224.554 144.646 226.572 144.852 227.955 144.984C234.946 145.645 236.906 145.855 237.909 146.051C238.51 146.168 239.704 146.269 240.561 146.277C241.418 146.284 242.538 146.437 243.05 146.617C243.561 146.797 244.654 146.944 245.478 146.944C246.915 146.944 246.989 146.918 247.309 146.3C247.667 145.61 247.691 144.522 247.407 141.926ZM242.24 354.871C241.871 350.138 238.512 343.743 234.3 339.753C232.096 337.665 230.514 336.674 227.628 335.572C226.785 335.251 225.751 334.853 225.33 334.69C224.91 334.526 223.088 333.888 221.283 333.273C219.479 332.657 217.756 332.022 217.455 331.862C217.154 331.703 216.564 331.47 216.143 331.346C215.722 331.223 214.689 330.862 213.846 330.546C213.004 330.231 212.019 329.885 211.659 329.778C208.657 328.894 207.759 328.646 206.518 328.357C202.89 327.514 199.737 327.398 198.093 328.046C197.734 328.187 196.291 328.354 194.889 328.416C192.735 328.512 192.008 328.453 190.218 328.034C188.628 327.663 187.735 327.57 186.644 327.663C183.514 327.931 179.766 329.305 176.22 331.484C175.619 331.854 174.248 332.67 173.173 333.299C171.077 334.524 167.449 337.858 166.437 339.489C165.95 340.273 164.101 345.597 163.442 348.108C162.996 349.808 162.745 352.943 162.894 354.956C163.029 356.792 163.404 357.966 164.363 359.565C165.358 361.222 165.932 362.029 167.724 364.278C170.932 368.306 175.218 372.307 176.353 372.333C176.52 372.336 176.849 372.484 177.083 372.66C177.341 372.855 177.997 372.981 178.758 372.981C180.203 372.981 181.999 372.184 182.657 371.252C183.931 369.448 184.577 366.842 184.342 364.456C183.968 360.644 183.999 360.807 182.895 357.143C182.386 355.454 182.45 354.704 183.156 354.07C183.545 353.72 183.938 353.679 186.363 353.737C187.938 353.776 189.692 353.951 190.439 354.145C192.405 354.656 203.497 354.673 205.206 354.169C205.94 353.951 207.345 353.797 208.815 353.772C212.461 353.71 212.368 353.695 212.76 354.45C213.079 355.066 213.078 355.25 212.738 356.687C212.534 357.548 212.232 358.513 212.067 358.832C211.903 359.151 211.768 359.713 211.768 360.083C211.768 360.451 211.596 361.173 211.385 361.685C210.868 362.943 210.88 366.469 211.404 367.417C211.602 367.777 211.766 368.252 211.766 368.473C211.767 368.694 211.965 369.125 212.206 369.43C212.446 369.735 212.643 370.098 212.643 370.235C212.643 370.965 216.383 373.854 217.329 373.854C217.527 373.854 217.926 374.007 218.214 374.195C219.228 374.859 223.754 374.325 226.205 373.254C226.506 373.122 227.343 372.789 228.065 372.512C228.786 372.236 229.745 371.787 230.193 371.514C230.642 371.24 231.059 371.017 231.121 371.017C231.528 371.017 235.152 368.147 236.534 366.73C241.139 362.009 242.565 359.043 242.24 354.871ZM201.605 110.171C200.938 109.504 200.234 109.49 199.384 110.126C198.549 110.75 197.111 112.343 197.111 112.644C197.111 112.771 196.89 113.152 196.619 113.493C195.983 114.292 195.73 114.703 194.899 116.281C193.615 118.721 193.16 120.411 192.815 124.013C192.574 126.534 193.442 128.758 194.45 128.197C194.853 127.972 195.794 125.273 195.797 124.335C195.798 123.959 195.946 123.53 196.127 123.38C196.308 123.231 196.455 122.968 196.455 122.795C196.455 122.335 197.439 120.317 198.934 117.708C199.657 116.448 200.419 115.093 200.63 114.698C200.84 114.302 201.112 113.86 201.232 113.714C201.522 113.366 202.136 111.597 202.139 111.098C202.141 110.882 201.901 110.465 201.605 110.171ZM216.745 111.999C216.238 111.376 215.394 110.944 214.68 110.944C213.942 110.944 212.424 111.553 212.424 111.849C212.424 111.943 211.81 112.435 211.06 112.943C209.171 114.221 207.968 115.364 206.538 117.234C204.086 120.44 203.016 122.119 202.878 122.975C202.803 123.444 202.657 123.879 202.551 123.943C202.193 124.164 202.357 125.108 202.795 125.341C203.473 125.703 204.175 125.391 204.748 124.472C205.453 123.342 210.282 118.596 212.401 116.953C216.493 113.778 217.018 113.308 217.018 112.821C217.018 112.554 216.895 112.185 216.745 111.999ZM323.331 133.417C323.248 129.713 323.096 127.125 322.935 126.654C322.792 126.235 322.672 125.302 322.67 124.582C322.667 123.861 322.559 122.878 322.431 122.398C322.302 121.919 322.104 120.887 321.991 120.107C321.878 119.328 321.682 118.296 321.556 117.817C321.43 117.337 321.249 116.453 321.153 115.853C321.057 115.253 320.875 114.467 320.749 114.108C320.622 113.748 320.358 112.864 320.162 112.144C319.966 111.424 319.667 110.54 319.497 110.18C319.328 109.82 318.879 108.789 318.5 107.889C317.594 105.736 316.37 103.284 315.988 102.859C315.82 102.671 315.459 102.121 315.186 101.635C313.395 98.4464 306.131 90.5989 303.033 88.5036C300.859 87.0342 294.458 83.8895 293.642 83.8895C293.465 83.8895 293.059 83.7486 292.739 83.5765C292.42 83.4052 290.584 82.761 288.659 82.1454C286.734 81.5298 284.864 80.9256 284.502 80.8021C284.142 80.6778 283.453 80.4822 282.971 80.3665C282.491 80.25 281.605 80.0196 281.003 79.8536C277.954 79.0111 274.687 78.2408 271.816 77.6895C270.852 77.5044 269.376 77.2088 268.534 77.0323C266.849 76.6793 265.021 76.3732 262.518 76.0254C261.616 75.9002 260.287 75.7046 259.565 75.5907C256.253 75.0699 248.09 74.6257 241.737 74.6213C234.909 74.617 230.771 74.9143 229.296 75.516C228.89 75.6812 228.419 75.8168 228.247 75.8168C228.077 75.8168 227.277 76.1263 226.469 76.5036C225.663 76.8818 224.559 77.3974 224.018 77.6496C222.363 78.4199 218.696 80.7665 217.426 81.8672C216.766 82.4393 215.706 83.3496 215.07 83.8895C214.101 84.7137 212.092 86.9681 210.38 89.1556C209.42 90.3815 208.049 92.5847 208.049 92.9012C208.049 93.0907 207.953 93.3046 207.837 93.3767C207.625 93.5072 205.861 97.0171 205.861 97.3066C205.861 97.3901 205.682 97.7196 205.463 98.0378C204.998 98.7142 204.33 100.435 204.33 100.957C204.33 101.656 205.207 101.999 206.993 101.999C207.924 101.999 209.251 102.146 209.944 102.326C210.636 102.506 211.798 102.656 212.525 102.66C213.338 102.664 214.01 102.79 214.27 102.987C214.504 103.164 215.144 103.308 215.693 103.309C216.32 103.31 216.933 103.472 217.346 103.744C217.707 103.982 218.212 104.178 218.468 104.179C219.577 104.182 226.737 107.229 230.213 109.177C231.109 109.678 232.168 110.388 232.877 110.963C233.118 111.158 233.66 111.503 234.08 111.73C234.8 112.117 236.425 113.367 237.909 114.676C238.269 114.994 239 115.635 239.531 116.099C241.445 117.772 245.587 123.457 247.294 126.753C247.727 127.589 248.081 128.355 248.081 128.457C248.081 128.558 248.266 129.053 248.493 129.556C249.387 131.54 250.647 135.862 251.145 138.653C251.284 139.433 251.484 140.464 251.589 140.944C251.694 141.424 251.786 142.504 251.794 143.344C251.802 144.184 251.953 145.951 252.13 147.271C252.544 150.352 252.542 156.112 252.127 159.599C251.949 161.099 251.802 163.013 251.8 163.853C251.799 164.693 251.648 166.301 251.465 167.427C251.281 168.553 251.194 169.667 251.268 169.902C251.411 170.35 253.359 171.375 254.077 171.378C254.307 171.379 254.996 171.522 255.609 171.695C256.221 171.868 257.361 172.16 258.143 172.342C265.553 174.077 266.018 174.196 269.956 175.349C272.153 175.992 273.341 176.336 276.299 177.181C279.872 178.202 283.107 179.239 285.815 180.23C287.019 180.67 289.824 181.65 292.05 182.409C294.276 183.168 296.589 183.979 297.19 184.21C297.792 184.442 299.318 185.027 300.581 185.511C301.844 185.994 303.616 186.694 304.519 187.066C305.421 187.438 306.247 187.742 306.354 187.743C306.462 187.743 307.002 187.954 307.557 188.209C309.297 189.012 310.955 189.748 311.41 189.919C311.65 190.009 312.782 190.539 313.925 191.099C316.378 192.297 317.142 192.389 317.317 191.508C317.384 191.178 317.585 190.417 317.767 189.817C317.948 189.217 318.182 188.039 318.286 187.198C318.39 186.358 318.583 185.395 318.716 185.057C318.849 184.719 318.956 184.096 318.956 183.673C318.956 183.248 319.105 182.39 319.288 181.764C319.608 180.669 319.776 179.711 320.275 176.181C320.402 175.28 320.65 173.938 320.825 173.199C321 172.46 321.144 171.368 321.144 170.772C321.144 170.176 321.285 169.292 321.457 168.805C321.628 168.319 321.791 167.006 321.818 165.888C321.845 164.748 322.002 163.517 322.176 163.09C322.347 162.67 322.537 161.246 322.598 159.926C322.658 158.606 322.843 156.838 323.006 155.999C323.365 154.16 323.534 142.385 323.331 133.417ZM274.563 242.564C274.461 241.935 274.313 241.247 274.23 241.037C274.148 240.826 273.995 240.201 273.89 239.649C273.66 238.443 272.329 236.106 271.357 235.199C270.285 234.198 266.05 232.14 263.721 231.489C263 231.286 261.966 230.983 261.424 230.813C260.883 230.644 260.025 230.506 259.518 230.506C259.011 230.507 258.174 230.367 257.659 230.194C257.143 230.022 255.442 229.775 253.877 229.646C252.313 229.516 250.345 229.318 249.502 229.206C247.499 228.94 236.813 228.943 234.846 229.211C234.004 229.326 232.182 229.522 230.799 229.647C229.416 229.774 227.913 230.018 227.459 230.192C227.005 230.366 226.227 230.507 225.728 230.507C225.23 230.507 224.321 230.646 223.709 230.816C223.097 230.986 222.153 231.235 221.612 231.37C218.556 232.132 217.2 232.595 216.305 233.181C215.983 233.39 215.577 233.563 215.401 233.563C214.998 233.563 212.484 235.02 211.639 235.744C210.583 236.648 209.323 238.539 208.751 240.076C208.029 242.019 207.837 245.38 208.35 247.139C208.546 247.808 208.705 248.777 208.705 249.291C208.705 250.672 209.948 255.723 210.588 256.942C210.756 257.26 210.893 257.691 210.893 257.899C210.893 258.108 211.1 258.731 211.354 259.284C212.276 261.295 212.417 261.608 212.637 262.144C212.759 262.444 212.949 262.836 213.057 263.016C213.164 263.196 213.361 263.589 213.493 263.889C214.004 265.05 215.184 266.808 217.005 269.126C218.765 271.367 219.003 271.618 220.637 272.964C223.124 275.009 225.749 276.462 229.268 277.738C232.622 278.955 239.21 279.9 244.471 279.919C248.457 279.934 255.289 279.09 257.002 278.372C257.397 278.207 257.906 278.071 258.132 278.071C258.686 278.071 262.076 276.566 262.641 276.068C262.89 275.85 263.187 275.671 263.3 275.671C263.633 275.671 266.791 272.964 267.859 271.765C269.073 270.401 270.358 268.483 271.016 267.053C271.291 266.453 271.658 265.702 271.83 265.383C272.003 265.065 272.143 264.594 272.143 264.338C272.143 264.081 272.34 263.487 272.581 263.016C272.822 262.546 273.018 261.86 273.018 261.491C273.018 261.123 273.176 260.456 273.37 260.01C273.564 259.564 273.807 258.511 273.909 257.671C274.012 256.831 274.198 255.702 274.322 255.162C274.615 253.893 274.802 244.057 274.563 242.564ZM247.302 151.477C246.849 150.645 246.323 150.423 244.515 150.304C243.649 150.247 242.448 150.101 241.846 149.98C241.245 149.859 239.571 149.668 238.128 149.557C236.684 149.446 234.961 149.26 234.3 149.147C233.638 149.033 231.903 148.933 230.443 148.924C228.612 148.913 227.547 148.807 227.005 148.581C226.443 148.346 225.408 148.253 223.369 148.253C222.419 148.253 221.468 148.253 220.518 148.253C220.518 148.505 220.518 148.757 220.518 149.008C220.518 149.424 220.721 150.278 220.969 150.905C221.365 151.908 221.419 152.509 221.41 155.864C221.402 159.227 221.344 159.827 220.932 160.894C220.237 162.696 220.149 162.884 219.438 164.071C218.153 166.221 218.56 166.52 223.174 166.813C225.022 166.932 227.075 167.121 227.737 167.236C228.399 167.35 229.679 167.499 230.58 167.566C231.483 167.632 233.206 167.834 234.408 168.013C235.612 168.192 237.925 168.527 239.549 168.758C241.173 168.99 242.846 169.282 243.267 169.407C245.201 169.983 246.415 169.5 246.636 168.065C247.571 161.975 247.944 152.658 247.302 151.477ZM349.334 298.907C349.234 296.628 349.002 293.682 348.819 292.362C348.635 291.043 348.485 289.467 348.486 288.863C348.487 288.258 348.34 287.197 348.16 286.507C347.979 285.816 347.827 284.837 347.822 284.333C347.816 283.829 347.67 283.024 347.497 282.544C347.324 282.064 347.118 281.181 347.04 280.581C346.961 279.981 346.763 279.224 346.598 278.9C346.435 278.577 346.3 278.063 346.3 277.759C346.3 277.24 345.727 275.195 345.104 273.49C344.95 273.07 344.619 272.088 344.366 271.307C343.696 269.235 342.449 265.779 342.196 265.293C342.075 265.06 341.76 264.282 341.495 263.562C340.857 261.83 337.61 254.616 337.076 253.744C337.002 253.624 336.442 252.562 335.829 251.384C335.216 250.206 334.528 248.979 334.298 248.657C334.069 248.335 333.438 247.227 332.898 246.195C332.03 244.538 330.577 242.012 329.147 239.671C328.89 239.251 328.559 238.711 328.413 238.471C328.266 238.231 327.792 237.348 327.358 236.507C326.925 235.667 326.19 234.391 325.726 233.671C324.231 231.352 321.871 227.392 320.914 225.599C320.402 224.639 319.772 223.599 319.514 223.288C319.255 222.977 318.576 221.799 318.004 220.67C317.433 219.54 316.881 218.469 316.778 218.289C316.674 218.109 316.098 216.981 315.498 215.78C314.898 214.58 314.105 213.009 313.736 212.289C312.909 210.676 312.175 208.999 312.175 208.728C312.175 208.616 312.027 208.403 311.847 208.253C311.666 208.104 311.518 207.761 311.518 207.491C311.518 207.03 310.532 204.488 309.855 203.201C309.687 202.883 309.55 202.48 309.55 202.308C309.55 201.53 308.046 200.925 307.653 201.544C307.372 201.988 307.551 205.074 307.908 205.926C308.089 206.358 308.238 207.034 308.239 207.428C308.24 207.822 308.387 208.425 308.567 208.769C308.747 209.112 308.894 209.554 308.894 209.75C308.894 210.186 309.709 212.712 310.124 213.562C310.289 213.901 310.425 214.306 310.425 214.462C310.425 214.765 311.227 216.65 312.084 218.362C312.375 218.942 312.612 219.503 312.612 219.608C312.612 219.714 312.966 220.565 313.399 221.499C315.117 225.21 316.349 227.796 316.548 228.108C316.663 228.288 317.365 229.662 318.109 231.162C318.852 232.662 319.961 234.755 320.575 235.814C321.757 237.852 322.275 238.783 323.692 241.417C324.622 243.145 326.503 246.537 326.837 247.089C327.039 247.424 327.629 248.6 329.243 251.889C329.743 252.909 330.289 253.99 330.454 254.29C330.619 254.59 331.061 255.473 331.436 256.253C332.085 257.603 332.586 258.588 332.993 259.307C333.095 259.487 333.24 259.782 333.317 259.962C333.393 260.142 333.746 260.928 334.102 261.708C334.457 262.488 335.042 263.862 335.399 264.762C335.757 265.662 336.282 266.89 336.568 267.49C336.852 268.09 337.3 269.169 337.561 269.889C337.824 270.609 338.174 271.521 338.341 271.915C338.507 272.309 338.644 272.831 338.644 273.075C338.644 273.319 338.755 273.726 338.892 273.98C339.028 274.234 339.264 274.939 339.417 275.548C339.569 276.155 339.861 277.242 340.065 277.962C340.271 278.682 340.568 279.811 340.727 280.471C340.886 281.131 341.116 282.064 341.24 282.544C341.596 283.939 341.924 285.67 342.233 287.78C342.39 288.86 342.625 290.038 342.753 290.398C342.881 290.758 343.041 292.281 343.108 293.78C343.175 295.28 343.369 296.998 343.538 297.599C343.939 299.018 343.885 316.997 343.477 318.217C343.336 318.637 343.163 320.551 343.092 322.471C343.014 324.584 342.847 326.246 342.669 326.681C342.508 327.076 342.31 328.304 342.228 329.408C342.146 330.513 341.946 331.797 341.783 332.262C341.621 332.728 341.488 333.556 341.488 334.103C341.488 334.65 341.303 335.791 341.076 336.639C340.85 337.487 340.491 339.162 340.278 340.362C340.065 341.562 339.758 342.964 339.596 343.479C339.433 343.993 339.3 344.791 339.3 345.253C339.3 345.713 339.152 346.444 338.972 346.874C338.792 347.305 338.644 348.051 338.644 348.533C338.644 349.014 338.473 349.827 338.265 350.34C337.956 351.096 337.884 351.969 337.881 354.981C337.88 356.217 337.88 357.453 337.878 358.69C338.094 358.69 338.31 358.69 338.526 358.69C339.288 358.69 339.529 358.296 340.062 356.181C340.258 355.401 340.521 354.468 340.645 354.108C340.769 353.748 340.963 353.06 341.077 352.58C341.191 352.1 341.429 351.399 341.605 351.02C341.781 350.642 341.929 350.102 341.933 349.82C341.937 349.538 342.082 349.063 342.254 348.763C342.425 348.463 342.57 347.971 342.575 347.671C342.58 347.371 342.731 346.845 342.911 346.501C343.091 346.158 343.238 345.639 343.238 345.348C343.238 345.059 343.385 344.469 343.565 344.04C343.858 343.342 344.206 342.085 345.314 337.744C345.498 337.024 345.795 335.993 345.975 335.453C346.155 334.913 346.302 334.115 346.301 333.68C346.301 333.245 346.448 332.535 346.629 332.105C346.809 331.674 346.956 330.88 346.956 330.34C346.956 329.801 347.106 328.919 347.289 328.382C347.472 327.845 347.715 326.491 347.83 325.375C347.945 324.258 348.137 322.952 348.258 322.471C348.379 321.991 348.48 321.002 348.482 320.273C348.485 319.544 348.631 317.973 348.806 316.782C349.076 314.947 349.649 304.641 349.548 303.443C349.53 303.229 349.434 301.188 349.334 298.907ZM366.514 169.526C365.967 164.361 365.421 160.324 365.08 158.944C364.947 158.404 364.709 157.324 364.551 156.544C363.663 152.152 362.155 146.712 361.013 143.78C359.964 141.09 356.585 133.432 356.152 132.762C355.957 132.462 355.684 132.02 355.545 131.781C355.056 130.94 352.824 127.191 352.363 126.435C351.472 124.977 347.579 120.014 345.008 117.06C342.744 114.458 337.041 108.847 335.47 107.675C334.75 107.138 333.569 106.197 332.847 105.585C332.125 104.973 330.861 103.989 330.039 103.399C329.216 102.808 328.035 101.958 327.413 101.508C325.82 100.354 323.344 98.7255 323.181 98.7255C323.106 98.7255 322.74 98.496 322.367 98.2143C321.655 97.677 319.061 96.1189 316.593 94.7478C315.779 94.2957 314.885 93.9558 314.581 93.9845C314.111 94.028 314.039 94.1358 314.068 94.7531C314.091 95.2652 314.374 95.7755 315.052 96.5293C316.107 97.7022 317.36 99.375 317.863 100.283C318.689 101.775 322.238 108.915 322.245 109.1C322.249 109.214 322.443 109.7 322.675 110.18C322.908 110.66 323.104 111.298 323.112 111.598C323.12 111.898 323.27 112.335 323.448 112.568C323.624 112.801 323.769 113.242 323.768 113.549C323.767 113.856 323.907 114.549 324.079 115.089C324.577 116.657 325.395 121.726 325.837 125.999C326.017 127.739 326.266 129.691 326.389 130.337C326.669 131.811 326.673 152.337 326.393 153.708C326.282 154.248 326.132 155.966 326.059 157.526C325.986 159.086 325.827 160.854 325.707 161.453C325.587 162.053 325.348 163.771 325.178 165.271C325.008 166.771 324.775 168.538 324.662 169.198C324.549 169.858 324.449 170.889 324.438 171.489C324.427 172.089 324.276 172.973 324.103 173.453C323.93 173.933 323.783 174.893 323.778 175.587C323.773 176.281 323.621 177.201 323.441 177.632C323.26 178.063 323.111 178.968 323.11 179.644C323.108 180.318 322.911 181.494 322.672 182.255C322.433 183.015 322.238 184.123 322.238 184.716C322.238 185.309 322.104 186.113 321.94 186.504C321.778 186.893 321.573 187.798 321.487 188.515C321.402 189.231 321.191 190.301 321.019 190.892C320.846 191.485 320.707 192.437 320.707 193.009C320.707 193.929 320.789 194.11 321.417 194.578C322.064 195.059 324.079 196.108 327.925 197.966C329.522 198.737 331.854 200.005 332.715 200.57C333.773 201.263 335.499 202.183 336.675 202.68C337.16 202.885 338.457 203.684 339.615 204.49C340.176 204.879 340.706 205.199 340.793 205.199C340.881 205.199 341.664 205.641 342.534 206.181C343.404 206.721 344.16 207.162 344.214 207.162C344.268 207.162 344.813 207.457 345.425 207.817C346.037 208.177 346.666 208.472 346.823 208.472C346.979 208.472 347.289 208.671 347.509 208.915C347.731 209.158 348.46 209.669 349.129 210.048C349.8 210.427 350.814 211.062 351.384 211.459C351.954 211.855 352.537 212.181 352.679 212.181C352.822 212.181 353.119 212.345 353.342 212.545C353.563 212.745 354.227 213.212 354.815 213.581C355.405 213.951 356.941 214.965 358.23 215.835C361.417 217.986 362.325 217.997 362.543 215.89C362.661 214.748 363.659 208.675 364.12 206.289C364.295 205.389 364.502 203.917 364.581 203.017C364.66 202.117 364.86 200.791 365.025 200.071C365.19 199.351 365.327 198.37 365.329 197.89C365.331 197.41 365.529 195.839 365.769 194.399C366.009 192.958 366.208 191.044 366.213 190.144C366.217 189.244 366.363 187.33 366.537 185.89C366.939 182.571 366.926 173.426 366.514 169.526ZM324.605 289.853C324.488 289.433 324.318 288.599 324.229 287.999C323.824 285.283 321.473 279.55 320.308 278.436C319.789 277.941 319.505 277.837 318.82 277.893C318.537 277.916 318.255 277.939 317.972 277.962C317.93 280.617 317.889 283.272 317.846 285.926C317.771 290.709 317.61 294.586 317.441 295.635C317.287 296.595 317.146 298.755 317.129 300.435C317.097 303.483 317.098 303.491 317.724 304.308C318.175 304.894 318.518 305.126 318.939 305.126C319.721 305.126 321.104 304.083 322.192 302.673C323.074 301.531 324.203 298.95 324.209 298.063C324.211 297.808 324.355 297.206 324.528 296.726C324.894 295.713 324.945 291.074 324.605 289.853ZM332.075 317.726C331.788 317.259 330.921 317.226 330.552 317.669C330.302 317.97 330.065 319.344 329.744 322.362C329.674 323.022 329.482 323.756 329.317 323.992C329.153 324.23 329.018 324.818 329.017 325.302C329.017 325.785 328.879 326.442 328.712 326.761C328.545 327.08 328.338 327.865 328.249 328.506C328.161 329.146 327.954 329.865 327.789 330.102C327.623 330.338 327.487 330.747 327.487 331.01C327.487 331.272 327.302 332.011 327.076 332.652C326.849 333.293 326.299 334.995 325.852 336.435C325.405 337.875 324.966 339.249 324.876 339.489C324.313 340.999 323.769 342.828 323.769 343.211C323.769 343.458 323.624 343.851 323.448 344.084C323.27 344.317 323.121 344.802 323.115 345.162C323.108 345.522 322.908 346.245 322.671 346.768C322.432 347.291 322.234 347.978 322.23 348.295C322.225 348.612 322.081 349.116 321.91 349.416C321.738 349.716 321.593 350.201 321.589 350.492C321.585 350.784 321.392 351.667 321.162 352.456C320.514 354.669 320.215 355.963 320.051 357.272C319.968 357.932 319.787 358.748 319.648 359.085C319.508 359.424 319.394 360.336 319.394 361.115C319.394 361.962 319.259 362.79 319.056 363.18C318.222 364.791 318.221 378.277 319.056 380.924C319.242 381.513 319.397 382.298 319.402 382.67C319.406 383.041 319.55 383.589 319.721 383.889C319.894 384.189 320.038 384.694 320.042 385.01C320.053 385.809 320.53 387.35 321.961 391.199C322.139 391.679 322.471 392.475 322.699 392.968C322.926 393.461 323.112 393.991 323.112 394.146C323.112 394.608 324.209 396.702 324.764 397.299C325.345 397.925 326.2 398.022 326.625 397.512C326.849 397.241 326.855 397.021 326.651 396.46C326.51 396.069 326.393 395.462 326.393 395.11C326.392 394.759 326.244 394.19 326.064 393.846C325.885 393.503 325.736 392.913 325.734 392.538C325.733 392.161 325.593 391.264 325.425 390.544C325.256 389.824 325.005 388.279 324.867 387.112C324.729 385.943 324.529 384.69 324.425 384.326C324.321 383.962 324.173 381.335 324.097 378.487C323.923 371.956 324.269 366.908 325.194 362.507C325.357 361.728 325.555 360.648 325.634 360.108C325.713 359.568 325.915 358.705 326.085 358.191C326.255 357.677 326.393 356.879 326.393 356.418C326.393 355.956 326.541 355.227 326.722 354.796C326.902 354.365 327.05 353.563 327.05 353.013C327.05 352.463 327.184 351.748 327.348 351.424C327.512 351.1 327.7 350.281 327.767 349.605C327.834 348.929 328.045 348.074 328.235 347.707C328.425 347.339 328.581 346.723 328.581 346.338C328.581 345.953 328.727 345.137 328.906 344.527C329.534 342.381 330.113 339.822 330.113 339.193C330.113 338.843 330.26 338.276 330.439 337.933C330.619 337.589 330.767 336.952 330.768 336.517C330.768 336.082 330.902 335.345 331.064 334.88C331.227 334.415 331.419 333.243 331.491 332.275C331.564 331.308 331.745 330.227 331.893 329.875C332.251 329.02 332.413 318.275 332.075 317.726ZM354.381 269.344C354.166 267.964 353.831 266.05 353.636 265.089C353.442 264.129 353.146 262.656 352.977 261.817C352.621 260.044 352.263 258.598 351.95 257.671C351.83 257.311 351.637 256.624 351.524 256.144C351.41 255.664 351.172 254.962 350.996 254.584C350.819 254.206 350.675 253.761 350.675 253.596C350.675 253.431 350.542 253.102 350.379 252.866C350.215 252.628 349.957 252.055 349.806 251.59C349.451 250.503 347.153 245.859 346.239 244.384C343.916 240.632 342.463 238.438 341.024 236.507C340.218 235.427 338.884 233.709 338.058 232.69C336.781 231.113 336.457 230.835 335.904 230.835C334.875 230.835 334.938 231.644 336.145 233.92C337.723 236.894 338.201 237.738 338.886 238.755C339.234 239.271 339.519 239.865 339.519 240.075C339.519 240.285 339.61 240.55 339.72 240.664C340.278 241.237 344.11 248.868 345.631 252.435C346.142 253.635 346.749 255.01 346.978 255.49C347.208 255.97 347.396 256.51 347.396 256.689C347.396 256.869 347.592 257.338 347.832 257.731C348.073 258.124 348.269 258.649 348.269 258.898C348.269 259.147 348.41 259.66 348.583 260.039C348.756 260.417 348.994 261.07 349.113 261.49C349.231 261.91 349.434 262.548 349.565 262.908C349.696 263.268 350.141 264.594 350.555 265.853C351.835 269.754 352.025 270.304 352.339 271.013C352.507 271.392 352.644 271.899 352.644 272.141C352.644 273.237 353.561 273.935 354.408 273.482C354.92 273.209 354.918 272.78 354.381 269.344ZM362.104 406.689C362.002 406.569 361.694 405.883 361.42 405.162C361.146 404.442 360.789 403.509 360.628 403.089C359.193 399.338 357.939 393.101 357.34 386.726C357.177 384.986 356.942 382.63 356.818 381.49C356.694 380.349 356.591 378.522 356.587 377.427C356.585 376.333 356.435 374.599 356.256 373.574C356.008 372.159 355.907 369.187 355.838 361.228C355.786 355.462 355.681 350.643 355.603 350.518C355.004 349.55 353.684 351.56 353.415 353.85C353.332 354.549 353.125 355.454 352.955 355.861C352.783 356.269 352.644 357.149 352.644 357.817C352.644 358.485 352.488 359.396 352.297 359.842C351.728 361.174 351.451 369.665 351.736 377.125C351.865 380.546 352.081 383.688 352.214 384.108C352.348 384.528 352.536 385.878 352.634 387.108C352.731 388.338 352.934 389.494 353.085 389.676C353.236 389.856 353.406 390.715 353.463 391.584C353.52 392.452 353.703 393.38 353.871 393.645C354.038 393.911 354.175 394.444 354.175 394.83C354.175 396.568 357.002 403.4 358.387 405.014C358.561 405.215 358.756 405.528 358.82 405.708C358.885 405.888 359.355 406.556 359.866 407.192C360.674 408.201 360.881 408.341 361.477 408.283C362.058 408.227 362.169 408.119 362.225 407.562C362.259 407.201 362.205 406.808 362.104 406.689ZM370.378 294.872C370.068 291.705 369.682 288.848 369.257 286.581C368.225 281.055 367.696 278.577 367.233 277.09C366.219 273.836 365.087 270.414 364.707 269.453C364.469 268.853 363.987 267.626 363.635 266.726C361.218 260.553 360.953 260.024 360.169 259.828C359.304 259.612 358.918 259.876 359.096 260.565C359.18 260.893 359.328 261.717 359.427 262.394C359.524 263.072 359.712 263.826 359.843 264.071C359.974 264.315 360.081 264.756 360.081 265.052C360.081 265.346 360.341 266.555 360.656 267.738C360.973 268.922 361.309 270.345 361.405 270.901C361.5 271.458 361.734 272.369 361.924 272.927C362.114 273.484 362.269 274.237 362.269 274.599C362.269 274.961 362.421 275.549 362.606 275.907C362.791 276.264 362.997 277.216 363.062 278.023C363.128 278.83 363.321 279.86 363.491 280.312C363.661 280.764 363.804 281.599 363.81 282.167C363.816 282.734 363.92 283.64 364.042 284.18C364.164 284.72 364.427 287.028 364.625 289.308C365.282 296.836 364.988 310.69 364.046 316.58C363.931 317.3 363.828 318.675 363.817 319.635C363.804 320.595 363.65 321.921 363.472 322.58C363.218 323.524 363.149 325.33 363.147 331.019C363.144 338.863 363.156 338.944 364.336 338.944C365.244 338.944 365.293 338.801 365.978 334.144C366.111 333.244 366.321 331.869 366.447 331.09C366.573 330.31 366.813 328.758 366.983 327.641C367.152 326.523 367.341 325.528 367.402 325.43C367.463 325.33 367.613 324.575 367.735 323.752C367.857 322.927 368.105 321.321 368.287 320.181C368.469 319.04 368.712 317.372 368.829 316.471C368.945 315.571 369.187 314 369.365 312.98C370.329 307.487 370.795 299.128 370.378 294.872ZM406.794 274.689C406.65 273.85 406.455 272.917 406.36 272.617C406.074 271.724 404.958 269.558 403.942 267.926C403.419 267.086 402.718 265.957 402.386 265.417C402.053 264.877 401.552 264.254 401.271 264.034C400.99 263.814 400.624 263.371 400.458 263.052C400.151 262.465 399.859 262.087 398.488 260.508C398.071 260.027 397.242 259.046 396.645 258.326C396.047 257.606 395.009 256.441 394.336 255.737C393.663 255.034 393.113 254.371 393.113 254.265C393.113 254.159 393.023 254.072 392.913 254.072C392.803 254.072 391.647 252.98 390.343 251.647C383.51 244.657 371.574 233.07 370.217 232.107C369.653 231.707 368.889 231.109 368.519 230.779C367.193 229.594 365.488 228.326 365.221 228.326C365.07 228.326 364.824 228.474 364.675 228.655C364.058 229.394 364.893 231.537 366.959 234.517C367.447 235.223 367.945 235.956 368.066 236.147C368.613 237.017 370.327 239.058 371.859 240.665C372.78 241.632 373.912 242.859 374.372 243.392C374.833 243.926 377.54 246.721 380.388 249.603C390.968 260.31 394.143 263.606 395.52 265.307C396.297 266.268 397.012 267.087 397.108 267.128C397.567 267.324 400.058 271.353 401.445 274.144C402.325 275.915 403.176 278.964 403.176 280.349C403.176 281.221 403.692 281.831 404.351 281.737C405.055 281.638 406.586 279.227 406.769 277.93C406.852 277.348 406.949 276.724 406.987 276.544C407.023 276.364 406.936 275.529 406.794 274.689Z" fill="white"/>
<path d="M126.254 243.113C126.605 240.728 128.13 238.517 130.774 236.56C133.033 234.889 136.808 232.856 137.475 232.951C138.033 233.031 138.197 233.728 138.49 237.272C138.604 238.651 138.856 241.597 139.051 243.817C139.633 250.467 139.215 262.43 138.169 269.016C137.998 270.097 137.793 271.398 137.715 271.908C137.637 272.418 137.453 272.835 137.306 272.835C136.259 272.835 132.666 269.586 131.517 267.598C130.497 265.835 129.091 262.558 128.429 260.399C128.152 259.499 127.743 258.197 127.518 257.507C127.294 256.816 127.111 255.964 127.111 255.612C127.111 255.26 127.002 254.696 126.869 254.359C126.58 253.624 126.023 247.785 126.051 245.781C126.061 245.001 126.153 243.8 126.254 243.113Z" fill="white"/>
<path d="M215.106 300.751C215.983 299.858 216.969 298.773 217.297 298.341C218.015 297.396 218.544 295.761 218.547 294.472C218.55 293.437 217.767 290.117 217.422 289.704C217.099 289.316 217.288 288.013 217.679 287.94C218.147 287.851 219.835 289.532 220.345 290.597C220.581 291.088 220.932 291.784 221.126 292.144C221.403 292.657 221.476 293.438 221.467 295.761C221.457 298.604 221.431 298.765 220.842 299.769C219.63 301.83 218.372 302.784 216.366 303.162C214.997 303.419 214.698 303.417 214.219 303.148C213.913 302.976 213.628 302.732 213.587 302.607C213.546 302.481 214.229 301.646 215.106 300.751Z" fill="white"/>
</svg>
